<svg xmlns="http://www.w3.org/2000/svg" xmlns:xlink="http://www.w3.org/1999/xlink" xmlns:lucid="lucid" width="1760" height="1360"><g transform="translate(0 0)" lucid:page-tab-id="iRuz6dOC4DPX"><path d="M0 0h1760v1360H0z" fill="#fff"/><path d="M270.92 155.33a2 2 0 0 1 2-2h1428.3a2 2 0 0 1 2 2v1121.03a2 2 0 0 1-2 2H272.92a2 2 0 0 1-2-2z" fill="#f6f6f6"/><path d="M322.64 181.4c.02-2.26.85-4.2 2.48-5.78 1.63-1.6 3.6-2.4 5.87-2.38 1.04-.02 2.06.17 3.02.56.97.4 1.84.96 2.58 1.7l-1.64 1.56c-1.12-1.07-2.43-1.6-3.97-1.6-1.07 0-2.08.28-3 .8-.92.55-1.64 1.28-2.17 2.2-.52.94-.75 1.93-.73 3-.03 1.06.2 2.05.73 2.98.53.93 1.25 1.66 2.17 2.2.92.53 1.93.8 3 .8.77.03 1.5-.1 2.22-.38.7-.28 1.33-.7 1.88-1.26.74-.8 1.15-1.73 1.22-2.8H331v-2.32h7.46c.1.46.14.92.14 1.4.07 2-.6 3.74-1.96 5.22-.73.77-1.58 1.35-2.57 1.75-1 .4-2.03.58-3.08.54-2.3 0-4.25-.78-5.88-2.38-1.63-1.6-2.46-3.53-2.48-5.8zm0 0M344.67 179.06c-1.45 0-2.7.52-3.73 1.55-1.03 1.04-1.54 2.28-1.54 3.73 0 1.46.53 2.7 1.57 3.72 1.03 1.03 2.27 1.54 3.72 1.54 1.44 0 2.7-.52 3.72-1.55 1.03-1.03 1.54-2.27 1.54-3.72.02-.95-.2-1.84-.67-2.66-.47-.82-1.13-1.46-1.96-1.93-.83-.47-1.73-.7-2.67-.68zm0 8.45c-.55 0-1.06-.15-1.54-.44-.48-.3-.85-.68-1.1-1.17-.26-.5-.37-1.03-.35-1.58 0-.83.3-1.53.88-2.12.57-.58 1.28-.88 2.1-.88.84 0 1.57.3 2.15.88.58.6.88 1.3.88 2.12.03.56-.1 1.08-.34 1.57-.25.48-.62.88-1.1 1.17-.5.3-1.02.44-1.57.45zM356.24 179.06c-1.45 0-2.7.53-3.73 1.56-1.02 1.03-1.53 2.27-1.53 3.72 0 1.45.53 2.7 1.57 3.72 1.03 1.02 2.27 1.54 3.72 1.53 1.45 0 2.7-.52 3.73-1.55 1.02-1.03 1.53-2.27 1.53-3.72.02-.95-.2-1.84-.7-2.66-.47-.82-1.1-1.47-1.92-1.94-.82-.47-1.72-.7-2.66-.67zm0 8.45c-.55 0-1.08-.15-1.56-.44-.5-.3-.83-.68-1.08-1.17-.26-.5-.4-1.03-.37-1.58 0-.83.32-1.53.9-2.12.57-.58 1.28-.88 2.1-.88.84 0 1.55.3 2.13.88.57.6.87 1.3.87 2.12.02.56-.1 1.08-.35 1.57-.25.48-.62.88-1.1 1.17-.48.3-1 .44-1.54.45zM370.4 179.38v.86h-.06c-.37-.4-.78-.7-1.27-.9-.48-.2-1-.3-1.5-.28-1.42.06-2.64.6-3.6 1.62-.97 1.02-1.47 2.23-1.47 3.64 0 1.4.5 2.63 1.47 3.65.96 1 2.18 1.55 3.6 1.62.5 0 1.02-.1 1.5-.3.5-.22.92-.52 1.27-.9h.07v.75c0 2-1.07 3.1-2.82 3.1-.58-.03-1.1-.2-1.6-.55-.47-.34-.82-.78-1.02-1.33l-2 .84c.4.96 1 1.72 1.86 2.3.85.55 1.8.83 2.83.82 2.7 0 5-1.6 5-5.48v-9.46h-2.22zm-2.66 8.14c-.55 0-1.06-.16-1.52-.45-.46-.3-.83-.68-1.08-1.17-.25-.5-.34-1-.32-1.55-.02-.55.07-1.07.32-1.56.25-.5.62-.9 1.08-1.2.46-.3.97-.44 1.52-.47.55.03 1.03.2 1.5.5.45.3.8.7 1.03 1.18.23.5.35 1 .3 1.55.02.53-.07 1.04-.3 1.52-.23.48-.6.87-1.03 1.16-.44.3-.97.46-1.5.5zm0 0M374.2 173.8h2.33v15.47h-2.33zM382.87 187.52c-.55.02-1.05-.1-1.5-.4-.47-.3-.82-.7-1.05-1.2l7.06-2.9-.25-.6c-.32-.98-.9-1.78-1.73-2.4-.82-.6-1.74-.93-2.78-.96-.92 0-1.8.23-2.6.7-.8.5-1.4 1.14-1.84 1.96-.44.8-.62 1.68-.57 2.6-.02.95.2 1.83.67 2.66.46.82 1.1 1.46 1.94 1.93.83.48 1.7.7 2.65.7.88 0 1.73-.2 2.5-.62.8-.4 1.4-1 1.9-1.72l-1.8-1.2c-.28.45-.64.8-1.1 1.07-.46.26-.95.4-1.48.4zm-.18-6.43c.4-.05.8.03 1.16.24.37.2.65.5.83.87l-4.72 2c-.05-.5.04-1 .27-1.48.23-.47.55-.85 1-1.15.43-.28.9-.44 1.44-.47zm0 0M391.96 182.13c-.02-1.34.28-2.6.94-3.75.67-1.17 1.57-2.1 2.74-2.75 1.17-.66 2.4-.98 3.75-.96 1-.02 1.97.18 2.9.58.9.4 1.7 1 2.35 1.75l-1.28 1.24c-.5-.6-1.08-1.06-1.8-1.4-.7-.3-1.42-.45-2.2-.4-1.02-.04-1.98.2-2.86.72-.86.5-1.55 1.2-2.03 2.1-.5.9-.72 1.86-.67 2.87-.05 1 .2 1.96.7 2.84.47.88 1.14 1.58 2 2.1.9.5 1.83.74 2.84.72.85 0 1.66-.18 2.42-.53.76-.35 1.42-.84 1.98-1.48l1.28 1.27c-1.03 1.16-2.27 1.93-3.8 2.3-1.5.37-2.98.28-4.43-.27-1.46-.54-2.66-1.46-3.53-2.73-.87-1.28-1.3-2.7-1.3-4.24zm0 0M406.47 189.28v-14.3h1.84v14.3zM419.74 184.4c0 1.38-.48 2.56-1.47 3.54-1 .98-2.18 1.47-3.56 1.47-1.37 0-2.55-.48-3.54-1.46-1-.98-1.47-2.16-1.47-3.55 0-1.4.48-2.6 1.46-3.56 1-1 2.17-1.47 3.55-1.47 1.4 0 2.58.48 3.57 1.47 1 .97 1.47 2.16 1.47 3.55zm-1.84 0c.07-.74-.1-1.4-.5-2.02-.4-.6-.97-1.04-1.66-1.28-.7-.23-1.38-.23-2.07 0-.7.24-1.24.67-1.63 1.28-.4.6-.6 1.28-.53 2 0 .9.33 1.65.95 2.28.62.62 1.38.94 2.28.94.9 0 1.65-.32 2.28-.94.63-.63.95-1.4.95-2.27zM428.05 189.28v-1.36h-.12c-.34.52-.78.93-1.33 1.22-.56.3-1.15.45-1.77.46-2.53 0-3.73-1.7-3.73-4.1v-6h1.84v5.7c0 1.98 1 2.72 2.42 2.72.75-.07 1.4-.4 1.9-.97.5-.58.72-1.26.67-2.02v-5.4h1.84v9.78h-1.75zM431.3 184.4c-.08-1.37.36-2.55 1.25-3.56.9-1 2.03-1.56 3.38-1.66.67-.02 1.3.12 1.9.4.6.3 1.07.73 1.44 1.27h.07l-.07-1.35V175h1.84v14.28h-1.76v-1.36h-.07c-.37.54-.85.96-1.45 1.26-.6.3-1.22.44-1.88.4-1.36-.08-2.5-.64-3.4-1.65-.88-1-1.32-2.2-1.25-3.54zm8.06 0c.1-.74-.07-1.4-.46-2.03-.4-.62-.92-1.05-1.6-1.3-.7-.23-1.4-.23-2.08 0-.7.25-1.24.68-1.63 1.3-.4.62-.56 1.3-.47 2.02-.1.72.07 1.38.46 2 .38.63.93 1.06 1.62 1.3.7.24 1.38.24 2.07 0 .68-.24 1.2-.67 1.6-1.3.4-.62.55-1.28.46-2zM446.15 189.28v-14.3h4.87c.8 0 1.52.16 2.2.53.7.38 1.23.9 1.64 1.57.42.67.6 1.4.63 2.17-.04.78-.22 1.5-.64 2.17-.4.68-.94 1.2-1.63 1.57-.7.37-1.43.54-2.2.52H448v5.78h-1.83zm4.9-7.55c.7 0 1.28-.24 1.77-.73.48-.5.73-1.07.73-1.76 0-.7-.25-1.28-.73-1.77-.5-.48-1.08-.72-1.77-.72h-3.13v4.98H451zM456.77 189.28v-14.3h1.84v14.3zM460.2 186.32c0-2.2 2-3.4 4.3-3.4.94-.03 1.84.17 2.67.6v-.3c-.05-.57-.25-1.1-.65-1.53-.4-.44-.85-.72-1.42-.84-.58-.12-1.13-.05-1.66.2-.53.26-.92.65-1.17 1.17l-1.68-.72c.45-.88 1.14-1.53 2.04-1.95.9-.43 1.84-.53 2.83-.3 1 .2 1.8.7 2.43 1.47.65.77.97 1.65 1.02 2.65v5.9h-1.75v-1.35h-.1c-.34.54-.8.96-1.37 1.26-.58.3-1.2.44-1.84.4-.62.07-1.2-.04-1.77-.3-.6-.3-1.03-.7-1.37-1.22-.35-.53-.53-1.1-.53-1.74zm7-1.25c-.72-.47-1.48-.7-2.33-.64-1.93 0-2.72 1-2.72 1.93.07.5.3.88.7 1.18.4.3.82.43 1.3.38.8 0 1.5-.27 2.08-.83.57-.56.9-1.23.94-2.03zM471.56 186.3v-5.13h-1.72v-1.67h1.72v-3h1.84v3h2.4v1.68h-2.4v4.98c0 1.1.5 1.6 1.34 1.6.3 0 .55-.04.82-.16l.65 1.58c-.47.2-.96.28-1.46.25-.58.07-1.13-.03-1.66-.3s-.92-.66-1.2-1.18c-.27-.52-.4-1.06-.32-1.65zM483.52 175.17l-.62 1.58c-.27-.13-.53-.18-.83-.16-.3-.04-.57.03-.85.17-.27.15-.48.36-.62.63s-.18.56-.16.86v1.24h2.46v1.68h-2.55v8.1h-1.84v-8.1h-1.83v-1.68h1.84v-1.3c0-.6.12-1.2.44-1.72.33-.53.76-.94 1.32-1.22.55-.28 1.12-.4 1.74-.35.53-.02 1.04.07 1.52.27zM493.53 184.4c0 1.38-.5 2.56-1.47 3.54-1 .98-2.2 1.47-3.57 1.47-1.4 0-2.6-.48-3.57-1.46-1-.98-1.48-2.16-1.48-3.55 0-1.4.5-2.6 1.48-3.56.98-1 2.18-1.47 3.56-1.47 1.37 0 2.57.48 3.56 1.47.98.97 1.47 2.16 1.47 3.55zm-1.84 0c.06-.74-.13-1.4-.52-2.02-.4-.6-.97-1.04-1.66-1.28-.7-.23-1.38-.23-2.06 0-.7.24-1.27.67-1.66 1.28-.4.6-.58 1.28-.5 2-.08.74.1 1.4.5 2.02.4.6.96 1.03 1.65 1.27.7.24 1.38.24 2.07 0 .7-.24 1.27-.66 1.66-1.27.4-.6.58-1.28.5-2zM495 189.28v-9.78h1.77v1.6h.07c.25-.55.67-1 1.17-1.32.52-.34 1.1-.5 1.7-.52.47-.02.93.06 1.37.24l-.7 1.72c-.33-.1-.66-.16-1-.15-.48.03-.92.17-1.33.43-.42.27-.74.62-.95 1.05-.22.44-.33.9-.28 1.38v5.34zm0 0M502.06 179.5h1.75v1.35h.1c.35-.5.78-.9 1.3-1.2.54-.3 1.12-.45 1.7-.47.68-.05 1.28.1 1.85.44.58.34 1 .82 1.25 1.44.36-.6.87-1.05 1.47-1.4.6-.32 1.26-.48 1.95-.48 2.4 0 3.5 1.7 3.5 4.1v6h-1.84v-5.7c0-2-.78-2.73-2.2-2.73-1.4 0-2.47 1.52-2.47 3v5.4h-1.83v-5.68c0-2-.78-2.72-2.2-2.72-1.4 0-2.5 1.52-2.5 3v5.4h-1.83v-9.75z" fill="#737373"/><path d="M305.3 189.28l-2.88 5h-7.52c-.35 0-.64-.1-.94-.26-.3-.17-.53-.4-.7-.7l-6.07-10.6c-.17-.28-.26-.6-.26-.92 0-.34.1-.65.25-.94l2.3-4.05 2.85 5 4.32 7.48zm0 0" fill="#ffcc40"/><path d="M314.8 182.73l-6.1 10.6c-.16.3-.4.52-.7.7-.3.16-.6.24-.93.24h-4.65l2.88-5 4.32-7.47-4.32-7.48h5.68l3.77 6.56c.16.28.27.6.27.92 0 .33-.06.64-.23.93z" fill="#da4437"/><path d="M310.98 174.32h-14.3l-4.3 7.48-2.9-5 3.8-6.53c.15-.3.38-.52.68-.7.3-.16.6-.24.94-.24h12.17c.34 0 .64.08.94.25.3.17.54.4.7.7z" fill="#4284f3"/><path d="M305.3 174.32l4.32 7.48-4.32 7.48h-8.63l-4.3-7.48 4.3-7.48z" fill="#dfdfdf"/><path d="M297.25 181.8c0-2.06 1.67-3.74 3.74-3.74 2.06 0 3.74 1.68 3.74 3.74 0 2.07-1.68 3.74-3.75 3.74-2.08 0-3.75-1.67-3.75-3.74z" fill="#fff"/><path d="M293.27 170.43c.16-.3.4-.52.7-.7.28-.16.58-.24.93-.24h12.17c.34 0 .64.07.94.24.3.17.54.4.7.7l2.28 3.88-2.28-4.05c-.16-.3-.4-.52-.7-.7-.3-.16-.6-.24-.93-.24H294.9c-.35 0-.64.08-.94.25-.3.17-.53.4-.7.7l-3.77 6.53v.1z" fill="#fff" fill-opacity=".2"/><path d="M292.37 181.8l4.3-7.48h14.35l-.07-.16h-14.28l-4.3 7.48" fill="#1a237e" fill-opacity=".2"/><path d="M287.2 181.03l2.3-4 2.87 5 4.3 7.47h8.56l.06-.16h-8.63l-4.3-7.54-2.88-5-2.33 4c-.18.3-.25.65-.23 1 .02-.28.12-.54.25-.78zm0 0" fill="#fff" fill-opacity=".2"/><path d="M302.5 194.1h-7.6c-.35 0-.64-.07-.94-.24-.3-.17-.53-.4-.7-.7l-6.07-10.58c-.14-.26-.24-.55-.26-.85-.02.36.07.7.25 1l6.07 10.6c.16.3.4.52.7.7.28.16.58.24.93.24h7.52z" fill="#be360c"/><path d="M309.7 181.8l-4.3-7.48h-.1l4.32 7.48zM314.8 182.58l-6.1 10.6c-.16.28-.4.5-.7.68-.3.17-.6.25-.93.25h-4.56l-.08.17h4.65c.34 0 .64-.08.94-.25.3-.17.54-.4.7-.7l6.1-10.58c.18-.3.25-.64.22-1-.02.3-.1.58-.23.84zm0 0" fill="#3e2723"/><path d="M310.98 174.48l3.77 6.56c.14.26.23.54.25.84.02-.35-.07-.7-.25-1l-3.77-6.56h-5.7.02l.1.16M305.3 189.44l4.4-7.64h-.08l-4.32 7.48-2.88 5h.1z" fill="#fff"/><path d="M314.8 180.88l-3.82-6.56-2.28-4.05c-.16-.3-.4-.52-.7-.7-.3-.16-.6-.24-.93-.24H294.9c-.35 0-.64.08-.94.25-.3.17-.53.4-.7.7l-6.07 10.6c-.17.28-.26.6-.26.93 0 .34.1.65.25.94l6.07 10.6c.16.28.4.5.7.68.28.17.58.25.93.25h12.17c.34 0 .64-.08.94-.25.3-.17.54-.4.7-.7l6.1-10.58c.15-.3.25-.6.25-.93 0-.33-.1-.64-.26-.93z" fill="url(#a)"/><path d="M365.6 246.26a2 2 0 0 1 2-2H1736a2 2 0 0 1 2 2V1269.5a2 2 0 0 1-2 2H367.6a2 2 0 0 1-2-2z" fill="#eceff1"/><use xlink:href="#b" transform="matrix(1,0,0,1,381.60288706586437,260.2597450020626) translate(0 20.616319444444443)"/><use xlink:href="#c" transform="matrix(1,0,0,1,381.60288706586437,260.2597450020626) translate(79.13411458333331 20.616319444444443)"/><path d="M358.67 330.6h902.66v753.43H358.67z" stroke="#1071e5" stroke-width="7" fill-opacity="0"/><path d="M1020.67 298.6h667.2v311.97h-667.2z" stroke="#e81313" stroke-width="6" fill-opacity="0"/><path d="M1310 888.4h366v278h-366z" stroke="#008a0e" stroke-width="8" fill-opacity="0"/><path d="M815.75 397.9l18.15 46.35h54.43l-72.58-46.36z" stroke="#000" stroke-opacity="0" fill="#aecbfa"/><path d="M888.33 444.25H833.9l-18.15 46.35 72.58-46.35zM784.05 490.6l18.17-7.74 13.53-38.6h-18.1l-13.6 46.34z" stroke="#000" stroke-opacity="0" fill="#4285f4"/><path d="M784.05 397.9l13.6 46.35h18.1l-13.53-38.66-18.17-7.7z" stroke="#000" stroke-opacity="0" fill="#aecbfa"/><path d="M794.48 407.16v74.17h36.5v-74.17z" stroke="#000" stroke-opacity="0" fill-opacity="0"/><use xlink:href="#d" transform="matrix(1,0,0,1,784.0499938246784,495.59962801835786) translate(1.9954427083333286 20.616319444444443)"/><use xlink:href="#e" transform="matrix(1,0,0,1,784.0499938246784,495.59962801835786) translate(64.81011284722223 20.616319444444443)"/><use xlink:href="#f" transform="matrix(1,0,0,1,784.0499938246784,495.59962801835786) translate(16.38346354166667 51.86631944444444)"/><use xlink:href="#g" transform="matrix(1,0,0,1,784.0499938246784,495.59962801835786) translate(-14.9587673611111 83.11631944444443)"/><path d="M1094.46 388.88l17.84 45.57h53.5l-71.34-45.57z" stroke="#000" stroke-opacity="0" fill="#aecbfa"/><path d="M1165.8 434.45h-53.5l-17.84 45.57 71.35-45.57zM1063.3 480.02l17.85-7.6 13.3-37.97h-17.8l-13.36 45.57z" stroke="#000" stroke-opacity="0" fill="#4285f4"/><path d="M1063.3 388.88l13.36 45.57h17.8l-13.3-38-17.87-7.57z" stroke="#000" stroke-opacity="0" fill="#aecbfa"/><path d="M1073.54 398v72.9h35.88V398z" stroke="#000" stroke-opacity="0" fill-opacity="0"/><use xlink:href="#d" transform="matrix(1,0,0,1,1063.2886080447577,485.02207411359433) translate(0.9954427083333286 20.616319444444443)"/><use xlink:href="#e" transform="matrix(1,0,0,1,1063.2886080447577,485.02207411359433) translate(63.81011284722222 20.616319444444443)"/><use xlink:href="#h" transform="matrix(1,0,0,1,1063.2886080447577,485.02207411359433) translate(32.798828125 51.86631944444444)"/><use xlink:href="#i" transform="matrix(1,0,0,1,1063.2886080447577,485.02207411359433) translate(5.232638888888886 83.11631944444443)"/><path d="M518.95 981.08h97.77v34.12h-97.77v-34.12z" stroke="#000" stroke-opacity="0" fill="#aecbfa"/><path d="M606.94 981.08h9.78v34.12h-9.78v-34.12z" stroke="#000" stroke-opacity="0" fill="#669df6"/><path d="M616.72 981.08h-9.78v34.12l9.78-34.12z" stroke="#000" stroke-opacity="0" fill="#4285f4"/><path d="M518.95 981.08h9.78v34.12h-9.78v-34.12z" stroke="#000" stroke-opacity="0" fill="#669df6"/><path d="M538.5 995.73h29.33v4.87H538.5v-4.87zM589.83 990.82c4.88 0 7.33 2.44 7.33 7.32 0 4.88-2.44 7.32-7.33 7.32-4.88 0-7.33-2.44-7.33-7.32 0-4.88 2.45-7.32 7.33-7.32z" stroke="#000" stroke-opacity="0" fill="#fff"/><path d="M518.95 1024.94h97.77v34.12h-97.77v-34.12z" stroke="#000" stroke-opacity="0" fill="#aecbfa"/><path d="M606.94 1024.94h9.78v34.12h-9.78v-34.12z" stroke="#000" stroke-opacity="0" fill="#669df6"/><path d="M616.72 1024.94h-9.78v34.12l9.78-34.12z" stroke="#000" stroke-opacity="0" fill="#4285f4"/><path d="M518.95 1024.94h9.78v34.12h-9.78v-34.12z" stroke="#000" stroke-opacity="0" fill="#669df6"/><path d="M538.5 1039.5h29.33v4.88H538.5v-4.87zM589.83 1034.68c4.88 0 7.33 2.44 7.33 7.32 0 4.88-2.44 7.33-7.33 7.33-4.88 0-7.33-2.45-7.33-7.33s2.45-7.32 7.33-7.32z" stroke="#000" stroke-opacity="0" fill="#fff"/><path d="M519.93 981.86v76.35h95.8v-76.34z" stroke="#000" stroke-opacity="0" fill-opacity="0"/><use xlink:href="#j" transform="matrix(1,0,0,1,518.9508443702009,1063.9865361771228) translate(27.60785590277778 20.616319444444443)"/><use xlink:href="#k" transform="matrix(1,0,0,1,518.9508443702009,1063.9865361771228) translate(15.102430555555557 51.86631944444444)"/><use xlink:href="#l" transform="matrix(1,0,0,1,518.9508443702009,1063.9865361771228) translate(-14.75868055555555 83.11631944444443)"/><path d="M87.33 1115.82v-.16a16 16 0 0 1 16-16 16 16 0 0 1 16 16 16 16 0 0 1-16 16 16 16 0 0 1-16-16v-.16" stroke="#3a414a" stroke-width="2" fill="#fff7a1"/><path d="M103.33 1131.66v24m0 0l20 24m-20-24l-20 24m0-40h40" stroke="#3a414a" stroke-width="4" fill="#fff7a1"/><path d="M83.33 1099.66h40v80h-40z" fill="none"/><use xlink:href="#m" transform="matrix(1,0,0,1,83.33333333337214,1179.6565031738226) translate(-17.248046875 17.4375)"/><use xlink:href="#n" transform="matrix(1,0,0,1,83.33333333337214,1179.6565031738226) translate(-18.2060546875 43.572656249999994)"/><use xlink:href="#o" transform="matrix(1,0,0,1,83.33333333337214,1179.6565031738226) translate(-2.9921875 69.70781249999999)"/><path d="M469.88 995.33l1.9.46 1.8.74 1.68 1.02 1.5 1.27 1.26 1.5 1.03 1.66.74 1.8.45 1.9.15 1.94v.37l.15 1.84.42 1.75.7 1.66.94 1.55 1.18 1.38 1.38 1.18 1.54.94 1.67.7 1.76.4 1.82.16h11.6v.95H491.9l-1.92-.14-1.9-.46-1.82-.75-1.66-1.02-1.5-1.27-1.27-1.5-1.02-1.66-.74-1.8-.45-1.9-.15-1.95v-.38l-.14-1.82-.4-1.75-.7-1.68-.95-1.54-1.17-1.37-1.38-1.17-1.54-.94-1.67-.7-1.77-.43-1.82-.14H115.18l-1.82.14-1.76.43-1.68.7-1.54.93-1.37 1.18-1.17 1.38-.94 1.54-.7 1.68-.43 1.75-.14 1.82v90.5h-.95v-90.53l.15-1.93.46-1.9.74-1.8 1.02-1.68 1.27-1.5 1.5-1.26 1.66-1.02 1.8-.75 1.9-.47 1.94-.15h352.8z" stroke="#333" stroke-width=".05" fill="#333"/><path d="M103.63 1098.68l-.26-.02-.7.04v-.55h.96z" fill="#333"/><path stroke="#333" stroke-width=".05" fill="#333"/><path d="M518.3 1020.03l-14.25 4.64v-9.27z" fill="#333"/><path d="M519.85 1020.03l-16.28 5.3v-10.6zm-15.33 3.98l12.25-3.97-12.25-3.98z" stroke="#333" stroke-width=".05" fill="#333"/><use xlink:href="#p" transform="matrix(1,0,0,1,165.73270986862605,999.6565031738224) translate(0 21.52777777777778)"/><use xlink:href="#q" transform="matrix(1,0,0,1,165.73270986862605,999.6565031738224) translate(79.90451388888889 21.52777777777778)"/><use xlink:href="#r" transform="matrix(1,0,0,1,165.73270986862605,999.6565031738224) translate(0 53.79340277777778)"/><use xlink:href="#s" transform="matrix(1,0,0,1,165.73270986862605,999.6565031738224) translate(60.177951388888886 53.79340277777778)"/><use xlink:href="#t" transform="matrix(1,0,0,1,165.73270986862605,999.6565031738224) translate(81.13064236111111 53.79340277777778)"/><path d="M558.12 419.6l-48.4 48.33-4.08-4.1 48.34-48.38 4.14 4.14z" stroke="#000" stroke-opacity="0" fill="#4285f4"/><path d="M540.26 433.37c4.9 5.08 4.75 13.13-.33 18.03-5.07 4.9-13.13 4.74-18.02-.33-4.88-5.08-4.73-13.13.34-18.03s13.13-4.74 18.02.33z" stroke="#000" stroke-opacity="0" stroke-width=".72" fill="#669df6"/><path d="M575.15 441.9c0 9.9-2.74 18.27-8.64 26.2-.97-1.84-2.47-3.08-4.5-3.52 7.42-10.05 9.44-21.88 5.74-33.87 2.03-.7 3.62-1.67 5.2-3 1.6 4.86 2.3 9.18 2.2 14.2zm-18.08 35.47c-12 8.82-26.2 11.03-40.32 6.27 1.33-1.68 2.3-3.27 3-5.2 12 3.7 23.82 1.67 33.96-5.83.45 2.13 1.7 3.7 3.54 4.77zm-11.74-77.18c-1.4 1.66-2.3 3.25-3.08 5.2h-.18c-11.9-3.54-23.55-1.5-33.52 5.8-.53-2.02-1.68-3.5-3.53-4.57 12-8.82 26.2-11.03 40.3-6.27zm-44.9 19.13c-7.4 10.06-9.44 21.8-5.82 33.78-1.93.8-3.52 1.7-5.2 3-4.76-14.1-2.55-28.3 6.27-40.4 1.06 1.95 2.65 3.2 4.76 3.63z" stroke="#000" stroke-opacity="0" fill="#4285f4"/><path d="M565.1 412.6c0-2.5-2-4.53-4.5-4.53s-4.53 2.02-4.53 4.52c0 2.5 2.02 4.5 4.52 4.5 2.5 0 4.5-2 4.5-4.5zm6.17 0c0 5.93-4.82 10.75-10.76 10.75-5.93 0-10.76-4.82-10.76-10.76 0-5.95 4.83-10.77 10.77-10.77 5.95 0 10.77 4.82 10.77 10.76zM565.1 471.5c0-2.5-2-4.5-4.5-4.5s-4.53 2-4.53 4.5 2.02 4.53 4.52 4.53c2.5 0 4.5-2.03 4.5-4.52zm6.17 0c-.02 5.95-4.87 10.75-10.8 10.72-5.95-.02-10.75-4.86-10.73-10.8.03-5.94 4.85-10.72 10.77-10.72 5.97.02 10.77 4.87 10.77 10.8zM506.12 471.5c0-2.5-2.03-4.5-4.52-4.5-2.5 0-4.53 2-4.53 4.5s2.03 4.53 4.53 4.53c2.5 0 4.52-2.03 4.52-4.52zm6.15 0c-.02 5.95-4.86 10.75-10.8 10.72-5.94-.02-10.74-4.86-10.72-10.8.02-5.94 4.86-10.74 10.8-10.72 5.94.02 10.74 4.87 10.72 10.8zM506.12 412.6c0-2.5-2.03-4.53-4.52-4.53-2.5 0-4.53 2.02-4.53 4.52 0 2.5 2.03 4.5 4.53 4.5 2.5 0 4.52-2 4.52-4.5zm6.15 0c0 5.93-4.82 10.75-10.76 10.75-5.93 0-10.75-4.82-10.75-10.76 0-5.95 4.82-10.77 10.76-10.77h.05c5.92 0 10.72 4.8 10.72 10.72v.04z" stroke="#000" stroke-opacity="0" fill="#aecbfa"/><path d="M531.04 397.9c24.35 0 44.1 19.75 44.1 44.1s-19.75 44.1-44.1 44.1c-24.34 0-44.1-19.75-44.1-44.1s19.76-44.1 44.1-44.1z" fill-opacity="0"/><use xlink:href="#u" transform="matrix(1,0,0,1,486.93664241840395,491.105823480761) translate(1.8513454861111143 20.616319444444443)"/><use xlink:href="#v" transform="matrix(1,0,0,1,486.93664241840395,491.105823480761) translate(9.707248263888886 51.86631944444444)"/><use xlink:href="#w" transform="matrix(1,0,0,1,486.93664241840395,491.105823480761) translate(32.032552083333336 83.11631944444443)"/><use xlink:href="#x" transform="matrix(1,0,0,1,486.93664241840395,491.105823480761) translate(-22.855685763888886 114.36631944444443)"/><use xlink:href="#y" transform="matrix(1,0,0,1,486.93664241840395,491.105823480761) translate(9.0724826388889 145.61631944444443)"/><a xlink:href="http://manifest.json" target="_blank" transform="matrix(1,0,0,1,486.93664241840395,491.105823480761)"><path class="lucid-link lucid-hotspot lucid-overlay-hotspot" fill-opacity="0" d="M-22.86 93.75h134.7v26.04h-134.7z"/></a><path d="M409.13 929.06l.15 1.82.42 1.76.7 1.67.94 1.55 1.17 1.38 1.38 1.17 1.55.95 1.67.7 1.75.4 1.83.15h110.6l1.94.16 1.9.45 1.82.76 1.67 1.03 1.5 1.26 1.27 1.5 1.02 1.65.74 1.82.46 1.9.15 1.94v27.52h-.95V953.1l-.15-1.82-.42-1.76-.7-1.67-.93-1.54-1.18-1.37-1.37-1.17-1.55-.95-1.67-.68-1.75-.42-1.83-.15h-110.6l-1.94-.15-1.9-.45-1.8-.75-1.68-1.03-1.5-1.27-1.26-1.5-1.02-1.66-.75-1.8-.47-1.9-.15-1.94V740.94h.95zm61.42-486.6h-49.87l-1.82.16-1.76.42-1.67.7-1.55.94-1.37 1.17-1.17 1.38-.94 1.54-.7 1.67-.42 1.76-.15 1.82V681.8h-.95V453.97l.15-1.93.46-1.9.74-1.8 1.02-1.68 1.27-1.5 1.5-1.26 1.66-1.02 1.8-.75 1.9-.45 1.94-.16h49.9z" stroke="#333" stroke-width=".05" fill="#333"/><path d="M543.75 984.08h-.95v-2.22h.95zm0-3h-.95v-.5h.95z" fill="#333"/><path stroke="#333" stroke-width=".05" fill="#333"/><path d="M485.32 442l-14.27 4.63v-9.27z" fill="#333"/><path d="M486.86 442l-16.28 5.3v-10.6zm-15.33 3.98l12.25-3.98-12.25-3.98z" stroke="#333" stroke-width=".05" fill="#333"/><use xlink:href="#z" transform="matrix(1,0,0,1,330.5758632606682,681.7868425199406) translate(0 21.52777777777778)"/><use xlink:href="#A" transform="matrix(1,0,0,1,330.5758632606682,681.7868425199406) translate(71.48437499999999 21.52777777777778)"/><use xlink:href="#B" transform="matrix(1,0,0,1,330.5758632606682,681.7868425199406) translate(0 53.79340277777778)"/><path d="M778.1 443.77v.95h-30.57v-.95zm-202.45-1.3v-.95h46.45v.95z" stroke="#333" stroke-width=".05" fill="#333"/><path d="M575.66 442.47h-.54l.03-.47v-.48h.5z" fill="#333"/><path stroke="#333" stroke-width=".05" fill="#333"/><path d="M792.86 444.25l-14.27 4.63v-9.27z" fill="#333"/><path d="M794.4 444.25l-16.28 5.3v-10.6zm-15.33 3.98l12.25-3.98-12.25-4z" stroke="#333" stroke-width=".05" fill="#333"/><use xlink:href="#C" transform="matrix(1,0,0,1,622.0968757232246,429.67887758777687) translate(0 21.52777777777778)"/><use xlink:href="#D" transform="matrix(1,0,0,1,622.0968757232246,429.67887758777687) translate(65.64670138888889 21.52777777777778)"/><path d="M1380.26 332.6a2 2 0 0 1 2-2h265.4a2 2 0 0 1 2 2v224.87a2 2 0 0 1-2 2h-265.4a2 2 0 0 1-2-2z" fill="#cfe4ff"/><use xlink:href="#E" transform="matrix(1,0,0,1,1396.2588839840148,346.58993143314484) translate(44.046416015625 15.913085937499998)"/><use xlink:href="#F" transform="matrix(1,0,0,1,1396.2588839840148,346.58993143314484) translate(84.3515625 15.913085937499998)"/><path d="M1415.5 341.17h11.94v11.95h-11.95v-11.95z" stroke="#000" stroke-opacity="0" fill="#aecbfa"/><path d="M1421.46 341.17h5.98v11.95h-5.98v-11.95z" stroke="#000" stroke-opacity="0" fill="#669df6"/><path d="M1415.5 369.05h11.94V381h-11.95v-11.95z" stroke="#000" stroke-opacity="0" fill="#aecbfa"/><path d="M1421.46 369.05h5.98V381h-5.98v-11.95z" stroke="#000" stroke-opacity="0" fill="#669df6"/><path d="M1387.6 341.17h11.95v11.95h-11.95v-11.95z" stroke="#000" stroke-opacity="0" fill="#aecbfa"/><path d="M1393.58 341.17h5.97v11.95h-5.97v-11.95z" stroke="#000" stroke-opacity="0" fill="#669df6"/><path d="M1387.6 369.05h11.95V381h-11.95v-11.95z" stroke="#000" stroke-opacity="0" fill="#aecbfa"/><path d="M1393.58 369.05h5.97V381h-5.97v-11.95zM1399.55 345.15h15.94v3.98h-15.95v-3.98z" stroke="#000" stroke-opacity="0" fill="#669df6"/><path d="M1399.55 373.04h15.94v3.98h-15.95v-3.98zM1419.47 353.12h3.98v15.93h-3.98v-15.93zM1391.6 353.12h3.97v15.93h-3.98v-15.93z" stroke="#000" stroke-opacity="0" fill="#669df6"/><path d="M1391.6 353.12h3.97v3.98h-3.98v-3.98zM1419.47 353.12h3.98v3.98h-3.98v-3.98zM1399.55 345.15h4v3.98h-4v-3.98zM1399.55 373.04h4v3.98h-4v-3.98z" stroke="#000" stroke-opacity="0" fill="#4285f4"/><path d="M1391.98 345.15v31.87h31.08v-31.87z" stroke="#000" stroke-opacity="0" fill-opacity="0"/><path d="M1447.2 400.04h99.25v99.25h-99.25z" fill-opacity="0"/><path d="M1512.56 482.25c-18.66 0-33.8-3.24-33.8-7.3V492c0 4.04 15.14 7.3 33.8 7.3 18.65 0 33.8-3.26 33.8-7.3v-17.05c0 4.06-15.15 7.3-33.8 7.3zm28.45 3.47c-2.56.88-5.2 1.62-7.9 2.06-3.1.6-6.35.9-9.6.9-.8 0-1.4-.6-1.4-1.4 0-.75.6-1.4 1.4-1.4 3.05 0 6.1-.3 9.13-.82 2.5-.45 5-1.1 7.44-2 .74-.22 1.55.15 1.82.9.2.73-.14 1.54-.9 1.76zm-28.44-25.3c-18.66 0-33.8-3.24-33.8-7.3v17.92c0 4 15.14 7.3 33.8 7.3 18.65 0 33.8-3.3 33.8-7.3v-17.92c0 4.06-15.15 7.3-33.8 7.3zm28.45 4.06c-2.56.9-5.2 1.55-7.9 2.07-3.1.6-6.42.88-9.6.88-.8 0-1.4-.66-1.4-1.4 0-.8.6-1.4 1.4-1.4 3.05 0 6.1-.3 9.13-.8 2.5-.53 5-1.2 7.44-2 .74-.22 1.55.14 1.82.88.26.75-.14 1.56-.9 1.78zm-28.44-38.94c-18.66 0-33.8 3.25-33.8 8.56v15.04c0 4.06 15.14 7.3 33.8 7.3 18.65 0 33.8-3.24 33.8-7.3V434.7c0-5.9-15.15-9.15-33.8-9.15zm28.45 18.3c-2.56.88-5.2 1.54-7.9 2.06-3.1.6-6.35.88-9.6.88-.8 0-1.4-.66-1.4-1.4 0-.8.6-1.4 1.4-1.4 3.05 0 6.1-.3 9.13-.88 2.5-.45 5-1.1 7.44-1.92.74-.3 1.55.15 1.82.88.2.74-.14 1.48-.9 1.77zm-28.44-5.02c-16.83 0-30.42-3.02-30.42-4.8 0-2.28 13.6-5.67 30.42-5.67 16.83 0 30.4 3.54 30.4 5.68 0 1.84-13.57 4.8-30.4 4.8z" fill="url(#G)"/><path d="M1478.83 433.98v-.22c0-5.02 13.12-8.12 30.07-8.52-1.97-4.35-6.04-7.6-11.03-8.25-.43-9.68-8.57-17.27-18.3-16.96-7.77-.13-14.8 4.6-17.45 11.85-8.32 1-14.6 7.84-14.85 16.14.37 9.4 8.26 16.67 17.7 16.36.54 0 1.1-.04 1.6-.08h12.26v-10.34z" fill="url(#H)"/><path d="M1447.2 400.04h99.25v98.85h-99.25v-98.86z" fill-opacity="0"/><use xlink:href="#I" transform="matrix(1,0,0,1,1417.203429731305,508.2868758567483) translate(49.02294921875 17.4375)"/><path d="M1430.82 449.2v.94h-43.2v-.95zm-264.5-14.27v-.95h59.08v.94z" stroke="#333" stroke-width=".05" fill="#333"/><path d="M1166.33 434.93h-1.26l.74-.48-.73-.47h1.26z" fill="#333"/><path stroke="#333" stroke-width=".05" fill="#333"/><path d="M1445.6 449.66l-14.28 4.64v-9.27z" fill="#333"/><path d="M1447.12 449.66l-16.27 5.3v-10.6zm-15.32 3.98l12.25-3.98-12.25-3.98z" stroke="#333" stroke-width=".05" fill="#333"/><use xlink:href="#J" transform="matrix(1,0,0,1,1225.3996406907231,412.47978435600174) translate(0 21.52777777777778)"/><use xlink:href="#K" transform="matrix(1,0,0,1,1225.3996406907231,412.47978435600174) translate(52.00737847222222 21.52777777777778)"/><use xlink:href="#L" transform="matrix(1,0,0,1,1225.3996406907231,412.47978435600174) translate(0 53.79340277777778)"/><path d="M1094 1008.05l-.15 1.94-.46 1.9-.76 1.8-1.02 1.67-1.27 1.5-1.5 1.26-1.66 1.02-1.82.75-1.9.46-1.94.15H632.12v-.94h449.4l1.8-.14 1.77-.43 1.66-.7 1.54-.94 1.37-1.18 1.18-1.37.94-1.54.68-1.67.43-1.76.15-1.83V780.5h.95zm0-254.46h-.95V569.5h.95zm0-267.58h-.95v-14.6h.95z" stroke="#333" stroke-width=".05" fill="#333"/><path d="M1094 471.42h-.95v-.5h.95z" fill="#333"/><path stroke="#333" stroke-width=".05" fill="#333"/><path d="M631.62 1024.67l-14.26-4.64 14.26-4.63z" fill="#333"/><path d="M632.1 1025.32l-16.28-5.3 16.28-5.28zm-13.2-5.3l12.25 4v-7.97z" stroke="#333" stroke-width=".05" fill="#333"/><g><use xlink:href="#M" transform="matrix(1,0,0,1,967.190484944511,753.5896973026473) translate(0 21.52777777777778)"/><use xlink:href="#N" transform="matrix(1,0,0,1,967.190484944511,753.5896973026473) translate(109.10373263888889 21.52777777777778)"/><use xlink:href="#s" transform="matrix(1,0,0,1,967.190484944511,753.5896973026473) translate(171.89670138888889 21.52777777777778)"/><use xlink:href="#O" transform="matrix(1,0,0,1,967.190484944511,753.5896973026473) translate(192.84939236111111 21.52777777777778)"/></g><path d="M924 444.72h-35.17v-.95H924zm133.16-9.8h-46.72V434h46.72z" stroke="#333" stroke-width=".05" fill="#333"/><path d="M888.85 444.72h-1.26l.73-.47-.74-.48h1.25z" fill="#333"/><path stroke="#333" stroke-width=".05" fill="#333"/><path d="M1071.92 434.45l-14.26 4.64v-9.3z" fill="#333"/><path d="M1073.46 434.45l-16.28 5.3v-10.6zm-15.33 3.98l12.26-3.98-12.27-3.98z" stroke="#333" stroke-width=".05" fill="#333"/><g><use xlink:href="#P" transform="matrix(1,0,0,1,924.0071473715668,414.66951622217607) translate(0 21.52777777777778)"/><use xlink:href="#Q" transform="matrix(1,0,0,1,924.0071473715668,414.66951622217607) translate(46.82074652777778 21.52777777777778)"/><use xlink:href="#R" transform="matrix(1,0,0,1,924.0071473715668,414.66951622217607) translate(0 53.79340277777778)"/></g><path d="M1436.1 1010.05v19.3l46.56 25v-19.32l-46.55-24.98zM1436.1 1039.74v19.3l46.56 25v-19.32l-46.55-24.98z" stroke="#000" stroke-opacity="0" fill="#aecbfa"/><path d="M1482.66 1054.34l46.55-24.98v-19.3l-46.54 24.97v19.3zM1482.66 1084.03l46.55-24.98v-19.3l-46.54 24.97v19.3z" stroke="#000" stroke-opacity="0" fill="#669df6"/><path d="M1529.2 1000.32v-19.3l-46.54-25v19.32l46.55 24.98z" stroke="#000" stroke-opacity="0" fill="#4285f4"/><path d="M1482.66 956.03L1436.1 981v19.32l46.56-24.98v-19.3z" stroke="#000" stroke-opacity="0" fill="#669df6"/><path d="M1436.1 980.87v19.3l46.56 24.98v-19.3l-46.55-25z" stroke="#000" stroke-opacity="0" fill="#aecbfa"/><path d="M1482.66 1025.15l46.55-24.98v-19.3l-46.54 24.97v19.3z" stroke="#000" stroke-opacity="0" fill="#669df6"/><path d="M1482.66 956.03l-46.55 27.78v72.33l46.65 27.9 46.46-27.9v-72.2z" stroke="#000" stroke-opacity="0" stroke-width=".01" fill-opacity="0"/><g><use xlink:href="#S" transform="matrix(1,0,0,1,1436.1074604828439,1089.0329088891044) translate(18.34331597222222 20.616319444444443)"/><use xlink:href="#T" transform="matrix(1,0,0,1,1436.1074604828439,1089.0329088891044) translate(7.156250000000007 51.86631944444444)"/></g><path d="M1128.83 1008l.14 1.84.42 1.75.68 1.66.95 1.55 1.17 1.38 1.38 1.18 1.54.94 1.67.7 1.75.4 1.82.16h279.35v.95h-279.4l-1.92-.14-1.9-.46-1.8-.75-1.68-1.02-1.5-1.27-1.26-1.5-1.03-1.66-.75-1.8-.45-1.9-.15-1.95V780.48h.94zm0-254.4h-.95V569.5h.94zm0-267.58h-.95v-27.14h.94z" stroke="#333" stroke-width=".05" fill="#333"/><path d="M1128.83 458.9h-.95v-.22l.94-.6z" fill="#333"/><path stroke="#333" stroke-width=".05" fill="#333"/><path d="M1434.5 1020.03l-14.28 4.64v-9.27z" fill="#333"/><path d="M1436.03 1020.03l-16.28 5.3v-10.6zm-15.33 3.98l12.25-3.97-12.25-3.98z" stroke="#333" stroke-width=".05" fill="#333"/><defs><radialGradient gradientUnits="userSpaceOnUse" id="a" fx="-166248.31" fy="301581.09" cx="168222.45" cy="-300149.4" r="15497.49"><stop offset="0%" stop-color="#fff" stop-opacity=".1"/><stop offset="100%" stop-color="#fff" stop-opacity="0"/></radialGradient><path fill="#333" d="M1161-1018c0 201-122 330-278 388l342 618V0h-206L703-589H361V0H168v-1456h482c310-2 511 139 511 438zm-193 0c0-187-120-280-313-280H361v552h295c179 3 313-101 312-272" id="U"/><path fill="#333" d="M599-131c141 0 220-65 285-146l113 88C906-50 770 20 589 20 281 21 93-214 93-545c0-223 93-397 233-485 74-48 154-72 240-72 300 2 449 218 445 537v77H278c0 197 129 357 321 357zm227-509c-3-180-88-310-260-310-170 0-264 140-282 310h542" id="V"/><path fill="#333" d="M521 20C240 20 96-239 96-550c0-303 147-552 427-552 132 0 235 47 309 140l9-120h169V-26c4 277-183 454-459 452-165-1-334-81-400-187l96-111c79 98 176 147 291 147 180 1 288-109 286-290v-93C750-23 649 20 521 20zm48-965c-209 0-287 178-287 416 0 217 86 392 285 392 117 0 202-53 257-159v-494c-57-103-142-155-255-155" id="W"/><path fill="#333" d="M341 0H156v-1082h185V0zm-91-1264c-68 0-108-42-109-105 0-62 41-107 109-107s110 44 110 107-42 105-110 105" id="X"/><path fill="#333" d="M584 20C278 26 81-227 91-551c10-320 175-545 491-551 308-5 503 247 494 573-9 322-175 543-492 549zm-2-970c-208 0-305 185-305 421 0 216 106 398 307 398 211 0 307-186 307-420 0-214-109-399-309-399" id="Y"/><path fill="#333" d="M589-945c-131 0-219 81-264 174V0H140v-1082h175l6 136c83-104 191-156 324-156 229 0 346 129 346 387V0H806v-716c-2-153-65-229-217-229" id="Z"/><path fill="#333" d="M248 11c-71 0-114-43-114-108 0-67 42-112 114-112s116 45 116 112c-1 65-45 108-116 108zm1-883c-71 0-114-43-114-108 0-67 42-112 114-112s116 45 116 112c-1 65-45 108-116 108" id="aa"/><g id="b"><use transform="matrix(0.010850694444444444,0,0,0.010850694444444444,0,0)" xlink:href="#U"/><use transform="matrix(0.010850694444444444,0,0,0.010850694444444444,13.682725694444445,0)" xlink:href="#V"/><use transform="matrix(0.010850694444444444,0,0,0.010850694444444444,25.455729166666664,0)" xlink:href="#W"/><use transform="matrix(0.010850694444444444,0,0,0.010850694444444444,37.92317708333333,0)" xlink:href="#X"/><use transform="matrix(0.010850694444444444,0,0,0.010850694444444444,43.315972222222214,0)" xlink:href="#Y"/><use transform="matrix(0.010850694444444444,0,0,0.010850694444444444,55.98958333333333,0)" xlink:href="#Z"/><use transform="matrix(0.010850694444444444,0,0,0.010850694444444444,68.25086805555554,0)" xlink:href="#aa"/></g><path fill="#333" d="M491 20c-241-1-355-148-355-398v-704h185v699c0 164 67 246 200 246 141 0 235-53 282-158v-787h185V0H812l-4-107C736-22 630 20 491 20" id="ab"/><path fill="#333" d="M538-131c121 0 232-49 232-156 0-50-20-88-56-117-73-60-334-92-420-143-92-55-162-110-162-238 0-190 192-317 400-317 223 0 414 129 413 338H759c0-108-110-186-227-186-119 0-215 53-215 159 0 45 18 78 53 101 76 52 331 90 416 139 98 57 169 115 169 251C955-92 760 20 538 20c-176 0-314-68-386-174-38-55-57-115-57-179h185c6 129 116 202 258 202" id="ac"/><path fill="#333" d="M525-543H37v-151h488v151" id="ad"/><path fill="#333" d="M277-555c0 244 77 420 297 424 127 2 249-93 255-210h175C980-127 805 20 574 20 258 20 81-222 92-562c11-319 164-533 481-540 237-5 426 165 431 392H829c-7-133-115-242-256-240-209 4-296 166-296 395" id="ae"/><path fill="#333" d="M456 20C285 20 205-92 206-268v-671H9v-143h197v-262h185v262h202v143H391v671c-9 125 92 149 207 118V0c-49 13-96 20-142 20" id="af"/><path fill="#333" d="M663-916c-163-27-288 18-338 148V0H140v-1082h180l3 125c61-97 147-145 258-145 36 0 63 5 82 14v172" id="ag"/><path fill="#333" d="M561-1102c238-4 403 126 403 351v498c0 99 13 178 38 237V0H808c-11-21-19-59-26-114C696-25 593 20 474 20c-199 0-368-130-365-320 4-251 214-359 490-356h180v-85c-1-135-86-212-229-212-115 0-232 67-233 171H131c20-205 206-316 430-320zM294-326c0 117 90 185 207 185 122 0 239-75 278-162v-222H634c-227 0-340 66-340 199" id="ah"/><path fill="#333" d="M341 0H156v-1536h185V0" id="ai"/><path fill="#333" d="M729 0H543v-1233l-373 137v-168l530-199h29V0" id="aj"/><g id="c"><use transform="matrix(0.010850694444444444,0,0,0.010850694444444444,0,0)" xlink:href="#ab"/><use transform="matrix(0.010850694444444444,0,0,0.010850694444444444,12.250434027777777,0)" xlink:href="#ac"/><use transform="matrix(0.010850694444444444,0,0,0.010850694444444444,23.708767361111104,0)" xlink:href="#ad"/><use transform="matrix(0.010850694444444444,0,0,0.010850694444444444,29.839409722222218,0)" xlink:href="#ae"/><use transform="matrix(0.010850694444444444,0,0,0.010850694444444444,41.471354166666664,0)" xlink:href="#V"/><use transform="matrix(0.010850694444444444,0,0,0.010850694444444444,53.244357638888886,0)" xlink:href="#Z"/><use transform="matrix(0.010850694444444444,0,0,0.010850694444444444,65.50564236111111,0)" xlink:href="#af"/><use transform="matrix(0.010850694444444444,0,0,0.010850694444444444,72.76475694444444,0)" xlink:href="#ag"/><use transform="matrix(0.010850694444444444,0,0,0.010850694444444444,79.85026041666667,0)" xlink:href="#ah"/><use transform="matrix(0.010850694444444444,0,0,0.010850694444444444,91.9379340277778,0)" xlink:href="#ai"/><use transform="matrix(0.010850694444444444,0,0,0.010850694444444444,97.33072916666666,0)" xlink:href="#aj"/></g><path d="M688-137c238 0 323-102 359-325h193c-32 297-228 482-552 482-361 0-569-299-569-680 0-197 8-360 73-497 88-186 257-317 513-319 316-2 509 195 535 488h-193c-31-212-118-330-342-330-272 0-397 224-393 523v141c-3 282 115 517 376 517" id="ak"/><path d="M341 0H156v-1536h185V0" id="al"/><path d="M584 20C278 26 81-227 91-551c10-320 175-545 491-551 308-5 503 247 494 573-9 322-175 543-492 549zm-2-970c-208 0-305 185-305 421 0 216 106 398 307 398 211 0 307-186 307-420 0-214-109-399-309-399" id="am"/><path d="M491 20c-241-1-355-148-355-398v-704h185v699c0 164 67 246 200 246 141 0 235-53 282-158v-787h185V0H812l-4-107C736-22 630 20 491 20" id="an"/><path d="M520 20C244 20 95-247 95-550c0-298 151-550 427-552 127 0 227 43 301 130v-564h185V0H838l-9-116C755-25 652 20 520 20zm48-965c-210 0-288 177-288 416 0 218 87 392 286 392 117 0 203-53 257-158v-497c-55-102-140-153-255-153" id="ao"/><g id="d"><use transform="matrix(0.010850694444444444,0,0,0.010850694444444444,0,0)" xlink:href="#ak"/><use transform="matrix(0.010850694444444444,0,0,0.010850694444444444,14.463975694444445,0)" xlink:href="#al"/><use transform="matrix(0.010850694444444444,0,0,0.010850694444444444,19.856770833333332,0)" xlink:href="#am"/><use transform="matrix(0.010850694444444444,0,0,0.010850694444444444,32.53038194444444,0)" xlink:href="#an"/><use transform="matrix(0.010850694444444444,0,0,0.010850694444444444,44.78081597222222,0)" xlink:href="#ao"/></g><path d="M1161-1018c0 201-122 330-278 388l342 618V0h-206L703-589H361V0H168v-1456h482c310-2 511 139 511 438zm-193 0c0-187-120-280-313-280H361v552h295c179 3 313-101 312-272" id="ap"/><path d="M589-945c-131 0-219 81-264 174V0H140v-1082h175l6 136c83-104 191-156 324-156 229 0 346 129 346 387V0H806v-716c-2-153-65-229-217-229" id="aq"/><g id="e"><use transform="matrix(0.010850694444444444,0,0,0.010850694444444444,0,0)" xlink:href="#ap"/><use transform="matrix(0.010850694444444444,0,0,0.010850694444444444,13.682725694444445,0)" xlink:href="#an"/><use transform="matrix(0.010850694444444444,0,0,0.010850694444444444,25.93315972222222,0)" xlink:href="#aq"/></g><path d="M631-137c179 0 314-70 314-231 0-71-25-127-75-166s-141-77-272-115c-165-47-285-106-360-175s-112-154-112-255c0-245 231-397 495-397 206 0 369 89 449 218 43 68 65 142 65 223H942c0-184-129-283-321-283-172 0-299 76-301 236 0 59 26 109 76 150s135 78 256 113c205 59 345 116 436 256 35 53 50 119 50 193-2 256-231 398-507 390C333 12 90-129 80-422h193c0 187 160 285 358 285" id="ar"/><path d="M599-131c141 0 220-65 285-146l113 88C906-50 770 20 589 20 281 21 93-214 93-545c0-223 93-397 233-485 74-48 154-72 240-72 300 2 449 218 445 537v77H278c0 197 129 357 321 357zm227-509c-3-180-88-310-260-310-170 0-264 140-282 310h542" id="as"/><path d="M663-916c-163-27-288 18-338 148V0H140v-1082h180l3 125c61-97 147-145 258-145 36 0 63 5 82 14v172" id="at"/><path d="M497-251l268-831h189L566 0H425L33-1082h189" id="au"/><path d="M341 0H156v-1082h185V0zm-91-1264c-68 0-108-42-109-105 0-62 41-107 109-107s110 44 110 107-42 105-110 105" id="av"/><path d="M277-555c0 244 77 420 297 424 127 2 249-93 255-210h175C980-127 805 20 574 20 258 20 81-222 92-562c11-319 164-533 481-540 237-5 426 165 431 392H829c-7-133-115-242-256-240-209 4-296 166-296 395" id="aw"/><g id="f"><use transform="matrix(0.010850694444444444,0,0,0.010850694444444444,0,0)" xlink:href="#ar"/><use transform="matrix(0.010850694444444444,0,0,0.010850694444444444,13.18359375,0)" xlink:href="#as"/><use transform="matrix(0.010850694444444444,0,0,0.010850694444444444,24.95659722222222,0)" xlink:href="#at"/><use transform="matrix(0.010850694444444444,0,0,0.010850694444444444,32.67144097222222,0)" xlink:href="#au"/><use transform="matrix(0.010850694444444444,0,0,0.010850694444444444,43.435329861111114,0)" xlink:href="#av"/><use transform="matrix(0.010850694444444444,0,0,0.010850694444444444,48.828125,0)" xlink:href="#aw"/><use transform="matrix(0.010850694444444444,0,0,0.010850694444444444,60.46006944444444,0)" xlink:href="#as"/></g><path d="M456 20C285 20 205-92 206-268v-671H9v-143h197v-262h185v262h202v143H391v671c-9 125 92 149 207 118V0c-49 13-96 20-142 20" id="ax"/><path d="M525-543H37v-151h488v151" id="ay"/><path d="M538-131c121 0 232-49 232-156 0-50-20-88-56-117-73-60-334-92-420-143-92-55-162-110-162-238 0-190 192-317 400-317 223 0 414 129 413 338H759c0-108-110-186-227-186-119 0-215 53-215 159 0 45 18 78 53 101 76 52 331 90 416 139 98 57 169 115 169 251C955-92 760 20 538 20c-176 0-314-68-386-174-38-55-57-115-57-179h185c6 129 116 202 258 202" id="az"/><path d="M632-1102c291 0 422 251 422 573 0 297-141 548-419 549-131 0-235-42-310-125v521H140v-1498h169l9 120c75-93 180-140 314-140zm-53 971c207 0 290-180 290-419 0-218-92-395-292-395-112 0-196 50-252 149v517c55 99 140 148 254 148" id="aA"/><path d="M561-1102c238-4 403 126 403 351v498c0 99 13 178 38 237V0H808c-11-21-19-59-26-114C696-25 593 20 474 20c-199 0-368-130-365-320 4-251 214-359 490-356h180v-85c-1-135-86-212-229-212-115 0-232 67-233 171H131c20-205 206-316 430-320zM294-326c0 117 90 185 207 185 122 0 239-75 278-162v-222H634c-227 0-340 66-340 199" id="aB"/><path d="M589-945c-131 0-219 81-264 174V0H140v-1536h185v585c82-101 189-151 320-151 229 0 346 129 346 387V0H806v-716c-2-153-65-229-217-229" id="aC"/><g id="g"><use transform="matrix(0.010850694444444444,0,0,0.010850694444444444,0,0)" xlink:href="#as"/><use transform="matrix(0.010850694444444444,0,0,0.010850694444444444,11.773003472222221,0)" xlink:href="#ax"/><use transform="matrix(0.010850694444444444,0,0,0.010850694444444444,19.032118055555554,0)" xlink:href="#al"/><use transform="matrix(0.010850694444444444,0,0,0.010850694444444444,24.424913194444443,0)" xlink:href="#ay"/><use transform="matrix(0.010850694444444444,0,0,0.010850694444444444,30.555555555555554,0)" xlink:href="#ao"/><use transform="matrix(0.010850694444444444,0,0,0.010850694444444444,43.088107638888886,0)" xlink:href="#av"/><use transform="matrix(0.010850694444444444,0,0,0.010850694444444444,48.48090277777778,0)" xlink:href="#az"/><use transform="matrix(0.010850694444444444,0,0,0.010850694444444444,59.9392361111111,0)" xlink:href="#aA"/><use transform="matrix(0.010850694444444444,0,0,0.010850694444444444,72.40668402777777,0)" xlink:href="#aB"/><use transform="matrix(0.010850694444444444,0,0,0.010850694444444444,84.49435763888889,0)" xlink:href="#ax"/><use transform="matrix(0.010850694444444444,0,0,0.010850694444444444,91.75347222222221,0)" xlink:href="#aw"/><use transform="matrix(0.010850694444444444,0,0,0.010850694444444444,103.38541666666666,0)" xlink:href="#aC"/><use transform="matrix(0.010850694444444444,0,0,0.010850694444444444,115.62499999999997,0)" xlink:href="#as"/><use transform="matrix(0.010850694444444444,0,0,0.010850694444444444,127.3980034722222,0)" xlink:href="#at"/></g><path d="M512-137c164 0 267-115 267-285v-1034h193v1031c4 276-186 445-460 445C234 20 52-130 53-402h192c0 167 97 265 267 265" id="aD"/><path d="M634-1102c292 0 422 254 422 573 0 298-143 547-420 549-137 0-242-48-317-145L310 0H140v-1536h185v573c75-93 178-139 309-139zm-44 965c207 0 281-175 281-413 0-224-79-395-283-395-122 0-210 57-263 170v468c57 113 145 170 265 170" id="aE"/><g id="h"><use transform="matrix(0.010850694444444444,0,0,0.010850694444444444,0,0)" xlink:href="#aD"/><use transform="matrix(0.010850694444444444,0,0,0.010850694444444444,12.261284722222221,0)" xlink:href="#am"/><use transform="matrix(0.010850694444444444,0,0,0.010850694444444444,24.934895833333332,0)" xlink:href="#aE"/></g><g id="i"><use transform="matrix(0.010850694444444444,0,0,0.010850694444444444,0,0)" xlink:href="#as"/><use transform="matrix(0.010850694444444444,0,0,0.010850694444444444,11.773003472222221,0)" xlink:href="#ax"/><use transform="matrix(0.010850694444444444,0,0,0.010850694444444444,19.032118055555554,0)" xlink:href="#al"/><use transform="matrix(0.010850694444444444,0,0,0.010850694444444444,24.424913194444443,0)" xlink:href="#ay"/><use transform="matrix(0.010850694444444444,0,0,0.010850694444444444,30.555555555555554,0)" xlink:href="#al"/><use transform="matrix(0.010850694444444444,0,0,0.010850694444444444,35.94835069444444,0)" xlink:href="#am"/><use transform="matrix(0.010850694444444444,0,0,0.010850694444444444,48.62196180555556,0)" xlink:href="#aB"/><use transform="matrix(0.010850694444444444,0,0,0.010850694444444444,60.70963541666667,0)" xlink:href="#ao"/><use transform="matrix(0.010850694444444444,0,0,0.010850694444444444,73.2421875,0)" xlink:href="#as"/><use transform="matrix(0.010850694444444444,0,0,0.010850694444444444,85.01519097222223,0)" xlink:href="#at"/></g><path d="M730-137c145 0 253-29 323-105v-327H716v-156h528v534C1148-51 964 20 729 20c-394 0-598-279-607-678v-127c-5-410 194-690 585-691 310-1 499 171 537 447h-192c-36-193-151-289-344-289-285 0-393 220-393 528v119c-5 296 140 534 415 534" id="aF"/><g id="j"><use transform="matrix(0.010850694444444444,0,0,0.010850694444444444,0,0)" xlink:href="#aF"/><use transform="matrix(0.010850694444444444,0,0,0.010850694444444444,15.13671875,0)" xlink:href="#ak"/><use transform="matrix(0.010850694444444444,0,0,0.010850694444444444,29.600694444444443,0)" xlink:href="#ar"/></g><path d="M1160-420C1159-145 963 0 674 0H169v-1456h476c294-1 476 112 476 388 0 153-99 253-216 302 146 38 255 167 255 346zM678-157c171 2 289-95 289-261 0-175-95-263-286-263H361v524h317zm250-912c-2-172-104-229-283-229H361v463h290c157 3 278-84 277-234" id="aG"/><path d="M442-501L326-380V0H141v-1536h185v929c135-169 291-317 436-475h225L566-630 1036 0H819" id="aH"/><g id="k"><use transform="matrix(0.010850694444444444,0,0,0.010850694444444444,0,0)" xlink:href="#aG"/><use transform="matrix(0.010850694444444444,0,0,0.010850694444444444,13.834635416666666,0)" xlink:href="#an"/><use transform="matrix(0.010850694444444444,0,0,0.010850694444444444,26.085069444444443,0)" xlink:href="#aw"/><use transform="matrix(0.010850694444444444,0,0,0.010850694444444444,37.717013888888886,0)" xlink:href="#aH"/><use transform="matrix(0.010850694444444444,0,0,0.010850694444444444,48.76302083333333,0)" xlink:href="#as"/><use transform="matrix(0.010850694444444444,0,0,0.010850694444444444,60.53602430555555,0)" xlink:href="#ax"/></g><path d="M1240-945c-141 0-250 95-250 227V0H804v-709c0-157-77-236-231-236-121 0-204 52-249 155V0H139v-1082h175l5 120c79-93 186-140 321-140 151 0 254 58 309 174 69-98 181-174 345-174 237 0 362 126 362 377V0h-185v-714c-2-159-67-231-231-231" id="aI"/><path d="M521 20C240 20 96-239 96-550c0-303 147-552 427-552 132 0 235 47 309 140l9-120h169V-26c4 277-183 454-459 452-165-1-334-81-400-187l96-111c79 98 176 147 291 147 180 1 288-109 286-290v-93C750-23 649 20 521 20zm48-965c-209 0-287 178-287 416 0 217 86 392 285 392 117 0 202-53 257-159v-494c-57-103-142-155-255-155" id="aJ"/><g id="l"><use transform="matrix(0.010850694444444444,0,0,0.010850694444444444,0,0)" xlink:href="#az"/><use transform="matrix(0.010850694444444444,0,0,0.010850694444444444,11.458333333333332,0)" xlink:href="#aI"/><use transform="matrix(0.010850694444444444,0,0,0.010850694444444444,30.93532986111111,0)" xlink:href="#ay"/><use transform="matrix(0.010850694444444444,0,0,0.010850694444444444,37.06597222222222,0)" xlink:href="#av"/><use transform="matrix(0.010850694444444444,0,0,0.010850694444444444,42.45876736111111,0)" xlink:href="#aq"/><use transform="matrix(0.010850694444444444,0,0,0.010850694444444444,54.72005208333333,0)" xlink:href="#aJ"/><use transform="matrix(0.010850694444444444,0,0,0.010850694444444444,67.1875,0)" xlink:href="#as"/><use transform="matrix(0.010850694444444444,0,0,0.010850694444444444,78.96050347222223,0)" xlink:href="#az"/><use transform="matrix(0.010850694444444444,0,0,0.010850694444444444,90.41883680555556,0)" xlink:href="#ax"/><use transform="matrix(0.010850694444444444,0,0,0.010850694444444444,97.67795138888889,0)" xlink:href="#ay"/><use transform="matrix(0.010850694444444444,0,0,0.010850694444444444,103.80859375,0)" xlink:href="#an"/><use transform="matrix(0.010850694444444444,0,0,0.010850694444444444,116.05902777777777,0)" xlink:href="#az"/></g><path d="M180 0v-1490h908v168H370v486h669v168H370v500h727V0H180" id="aK"/><path d="M65 0l393-574-370-544h210c88 136 192 297 267 435 67-142 176-302 264-435h206L661-564 1053 0H844c-94-144-206-310-287-458C484-308 366-142 273 0H65" id="aL"/><path d="M598-1118v154H368v674c0 100 37 144 132 144 23 0 62-6 92-12L629-6c-37 13-88 20-134 20-193 0-307-107-307-290v-688H20v-154h168v-266h180v266h230" id="aM"/><path d="M628 24c-324 0-524-230-524-574 0-343 198-582 503-582 237 0 487 146 487 559v75H286c9 234 145 362 343 362 132 0 231-58 273-172l174 48C1024-91 857 24 628 24zM287-650h624c-17-190-120-322-304-322-192 0-309 151-320 322" id="aN"/><path d="M158 0v-1118h174v172h12c41-113 157-188 290-188 26 0 70 2 91 3v181c-11-2-60-10-108-10-161 0-279 109-279 260V0H158" id="aO"/><path d="M158 0v-1118h175l1 205c55-151 181-225 313-225 147 0 245 90 285 228 53-141 190-228 352-228 194 0 352 125 352 384V0h-181v-749c0-161-105-225-225-225-151 0-243 103-243 244V0H807v-767c0-124-93-207-219-207-131 0-250 92-250 270V0H158" id="aP"/><path d="M471 26C259 26 90-98 90-318c0-256 228-303 435-329 202-27 287-16 287-108 0-139-79-219-234-219-161 0-248 86-283 164l-173-57c86-203 278-265 451-265 150 0 419 46 419 395V0H815v-152h-12C765-73 660 26 471 26zm31-159c199 0 310-134 310-271v-155c-30 35-226 55-295 64-131 17-246 59-246 186 0 116 97 176 231 176" id="aQ"/><path d="M338-1490V0H158v-1490h180" id="aR"/><g id="m"><use transform="matrix(0.0087890625,0,0,0.0087890625,0,0)" xlink:href="#aK"/><use transform="matrix(0.0087890625,0,0,0.0087890625,10.8193359375,0)" xlink:href="#aL"/><use transform="matrix(0.0087890625,0,0,0.0087890625,20.9970703125,0)" xlink:href="#aM"/><use transform="matrix(0.0087890625,0,0,0.0087890625,26.7099609375,0)" xlink:href="#aN"/><use transform="matrix(0.0087890625,0,0,0.0087890625,37.2041015625,0)" xlink:href="#aO"/><use transform="matrix(0.0087890625,0,0,0.0087890625,44.26171875,0)" xlink:href="#aP"/><use transform="matrix(0.0087890625,0,0,0.0087890625,60.029296875,0)" xlink:href="#aQ"/><use transform="matrix(0.0087890625,0,0,0.0087890625,70.13671875,0)" xlink:href="#aR"/></g><path d="M180 0v-1490h528c311 0 458 177 458 395 0 191-114 278-244 313v14c139 9 302 137 302 371 0 225-148 397-499 397H180zm190-168h350c232 0 321-102 321-231 0-149-120-277-311-277H370v508zm0-668h328c160 0 286-101 286-255 0-129-87-231-280-231H370v486" id="aS"/><path d="M537 14c-226 0-379-139-379-422v-710h180v695c0 172 97 275 253 275 160 0 281-109 281-300v-670h181V0H879v-209C806-46 684 14 537 14" id="aT"/><path d="M538 24C308 24 148-78 108-271l171-41c32 123 123 178 257 178 156 0 256-77 256-169 0-77-54-128-164-154l-186-44c-203-48-300-148-300-305 0-192 176-326 414-326 230 0 351 112 402 269l-163 42c-31-80-94-158-238-158-133 0-233 69-233 162 0 83 57 129 188 160l169 40c203 48 298 149 298 302 0 196-179 339-441 339" id="aU"/><path d="M158 0v-1118h180V0H158zm91-1301c-68 0-125-53-125-119s57-119 125-119c69 0 126 53 126 119s-57 119-126 119" id="aV"/><path d="M338-670V0H158v-1118h173l1 207c72-158 192-221 342-221 226 0 378 139 378 422V0H872v-695c0-172-96-275-252-275-161 0-282 109-282 300" id="aW"/><g id="n"><use transform="matrix(0.0087890625,0,0,0.0087890625,0,0)" xlink:href="#aS"/><use transform="matrix(0.0087890625,0,0,0.0087890625,11.77734375,0)" xlink:href="#aT"/><use transform="matrix(0.0087890625,0,0,0.0087890625,22.4208984375,0)" xlink:href="#aU"/><use transform="matrix(0.0087890625,0,0,0.0087890625,31.921875,0)" xlink:href="#aV"/><use transform="matrix(0.0087890625,0,0,0.0087890625,36.28125,0)" xlink:href="#aW"/><use transform="matrix(0.0087890625,0,0,0.0087890625,46.916015625,0)" xlink:href="#aN"/><use transform="matrix(0.0087890625,0,0,0.0087890625,57.41015625,0)" xlink:href="#aU"/><use transform="matrix(0.0087890625,0,0,0.0087890625,66.9111328125,0)" xlink:href="#aU"/></g><path d="M52 0l541-1490h220L1361 0h-200l-149-416H398L254 0H52zm404-582h497c-103-290-145-390-251-756-108 377-145 460-246 756" id="aX"/><path d="M613 24c-304 0-509-231-509-576 0-350 205-580 509-580 216 0 392 114 453 309l-173 49c-33-115-133-197-280-197-223 0-326 196-326 419 0 220 103 415 326 415 150 0 252-85 285-206l172 49C1010-95 832 24 613 24" id="aY"/><path d="M613 24c-304 0-509-231-509-576 0-350 205-580 509-580 305 0 511 230 511 580 0 345-206 576-511 576zm0-161c226 0 329-195 329-415 0-222-103-419-329-419-223 0-326 196-326 419 0 220 103 415 326 415" id="aZ"/><g id="o"><use transform="matrix(0.0087890625,0,0,0.0087890625,0,0)" xlink:href="#aX"/><use transform="matrix(0.0087890625,0,0,0.0087890625,12.4189453125,0)" xlink:href="#aY"/><use transform="matrix(0.0087890625,0,0,0.0087890625,22.7021484375,0)" xlink:href="#aM"/><use transform="matrix(0.0087890625,0,0,0.0087890625,28.4150390625,0)" xlink:href="#aZ"/><use transform="matrix(0.0087890625,0,0,0.0087890625,39.2080078125,0)" xlink:href="#aO"/></g><path d="M180 0v-1490h190v644h782v-644h190V0h-190v-678H370V0H180" id="ba"/><path d="M98-1322v-168h1126v168H757V0H567v-1322H98" id="bb"/><path d="M180 0v-1490h510c348 0 508 209 508 474 0 266-160 477-507 477H370V0H180zm190-706h312c236 0 327-133 327-310 0-176-91-307-329-307H370v617" id="bc"/><path d="M657 26c-323 0-524-166-541-416h195c15 169 171 246 346 246 202 0 356-106 356-265 5-203-294-238-475-293-239-73-380-191-380-389 0-252 224-419 512-419 294 0 499 171 508 396H992c-17-145-151-228-328-228-193 0-321 102-321 242 0 156 175 211 284 241l149 41c160 44 422 134 422 412 0 244-197 432-541 432" id="bd"/><g id="p"><use transform="matrix(0.010850694444444444,0,0,0.010850694444444444,0,0)" xlink:href="#ba"/><use transform="matrix(0.010850694444444444,0,0,0.010850694444444444,16.514756944444443,0)" xlink:href="#bb"/><use transform="matrix(0.010850694444444444,0,0,0.010850694444444444,30.859375,0)" xlink:href="#bb"/><use transform="matrix(0.010850694444444444,0,0,0.010850694444444444,45.20399305555556,0)" xlink:href="#bc"/><use transform="matrix(0.010850694444444444,0,0,0.010850694444444444,59.396701388888886,0)" xlink:href="#bd"/></g><path d="M158 418v-1536h174v179h20c37-59 106-193 324-193 279 0 474 222 474 576 0 356-194 580-473 580-213 0-288-135-325-197h-14v591H158zm492-555c209 0 317-186 317-421 0-232-105-413-317-413-206 0-314 166-314 413 0 249 111 421 314 421" id="be"/><path d="M577 24c-279 0-473-224-473-580 0-354 195-576 474-576 218 0 287 134 324 193h14v-551h180V0H922v-173h-20C865-111 790 24 577 24zm27-161c203 0 314-172 314-421 0-247-108-413-314-413-212 0-317 181-317 413 0 235 108 421 317 421" id="bf"/><g id="q"><use transform="matrix(0.010850694444444444,0,0,0.010850694444444444,0,0)" xlink:href="#aT"/><use transform="matrix(0.010850694444444444,0,0,0.010850694444444444,13.140190972222221,0)" xlink:href="#be"/><use transform="matrix(0.010850694444444444,0,0,0.010850694444444444,26.746961805555554,0)" xlink:href="#aR"/><use transform="matrix(0.010850694444444444,0,0,0.010850694444444444,32.12890625,0)" xlink:href="#aZ"/><use transform="matrix(0.010850694444444444,0,0,0.010850694444444444,45.670572916666664,0)" xlink:href="#aQ"/><use transform="matrix(0.010850694444444444,0,0,0.010850694444444444,58.14887152777778,0)" xlink:href="#bf"/></g><path d="M218-607c0-325 108-727 258-974h175c-155 315-250 682-250 974 0 265 78 531 250 886H476C306-10 218-315 218-607" id="bg"/><path d="M783 20c-382 0-661-292-661-764 0-473 279-766 661-766 302 0 548 182 601 489h-190c-42-204-217-313-411-313-268 0-476 208-476 590 0 381 209 588 476 588 195 0 369-110 411-313h190c-52 303-296 489-601 489" id="bh"/><path d="M600 0L52-1490h200c166 485 304 806 458 1336 156-533 285-846 449-1336h202L819 0H600" id="bi"/><g id="r"><use transform="matrix(0.010850694444444444,0,0,0.010850694444444444,0,0)" xlink:href="#bg"/><use transform="matrix(0.010850694444444444,0,0,0.010850694444444444,8.10546875,0)" xlink:href="#bh"/><use transform="matrix(0.010850694444444444,0,0,0.010850694444444444,24.33810763888889,0)" xlink:href="#bd"/><use transform="matrix(0.010850694444444444,0,0,0.010850694444444444,38.595920138888886,0)" xlink:href="#bi"/></g><path d="M593-100v-404H195v-159h398v-403h169v403h398v159H762v404H593" id="bj"/><use transform="matrix(0.010850694444444444,0,0,0.010850694444444444,0,0)" xlink:href="#bj" id="s"/><path d="M678-1118v154H420V0H240v-964H20v-154h220v-149c0-194 155-293 318-293 85 0 141 18 168 30l-50 154c-19-6-47-17-97-17-111 0-159 58-159 166v109h258" id="bk"/><path d="M295 13c-75 0-135-60-135-135s60-135 135-135 135 60 135 135S370 13 295 13" id="bl"/><path d="M157-1118h181V80c1 225-123 350-364 338V252c126 9 184-48 183-172v-1198zm91-183c-68 0-125-53-125-119s57-119 125-119c69 0 126 53 126 119s-57 119-126 119" id="bm"/><path d="M96 279C273-86 346-350 346-607c0-292-95-659-250-974h175c150 246 258 650 258 974 0 297-91 602-258 886H96" id="bn"/><g id="t"><use transform="matrix(0.010850694444444444,0,0,0.010850694444444444,0,0)" xlink:href="#aP"/><use transform="matrix(0.010850694444444444,0,0,0.010850694444444444,19.466145833333332,0)" xlink:href="#aQ"/><use transform="matrix(0.010850694444444444,0,0,0.010850694444444444,31.944444444444443,0)" xlink:href="#aW"/><use transform="matrix(0.010850694444444444,0,0,0.010850694444444444,45.07378472222222,0)" xlink:href="#aV"/><use transform="matrix(0.010850694444444444,0,0,0.010850694444444444,50.455729166666664,0)" xlink:href="#bk"/><use transform="matrix(0.010850694444444444,0,0,0.010850694444444444,58.029513888888886,0)" xlink:href="#aN"/><use transform="matrix(0.010850694444444444,0,0,0.010850694444444444,70.98524305555556,0)" xlink:href="#aU"/><use transform="matrix(0.010850694444444444,0,0,0.010850694444444444,82.71484375,0)" xlink:href="#aM"/><use transform="matrix(0.010850694444444444,0,0,0.010850694444444444,89.98480902777777,0)" xlink:href="#bl"/><use transform="matrix(0.010850694444444444,0,0,0.010850694444444444,96.38671875,0)" xlink:href="#bm"/><use transform="matrix(0.010850694444444444,0,0,0.010850694444444444,101.76866319444444,0)" xlink:href="#aU"/><use transform="matrix(0.010850694444444444,0,0,0.010850694444444444,113.49826388888889,0)" xlink:href="#aZ"/><use transform="matrix(0.010850694444444444,0,0,0.010850694444444444,126.82291666666666,0)" xlink:href="#aW"/><use transform="matrix(0.010850694444444444,0,0,0.010850694444444444,139.95225694444443,0)" xlink:href="#bn"/></g><path d="M992-673H361v516h733V0H169v-1456h915v158H361v468h631v157" id="bo"/><g id="u"><use transform="matrix(0.010850694444444444,0,0,0.010850694444444444,0,0)" xlink:href="#bo"/><use transform="matrix(0.010850694444444444,0,0,0.010850694444444444,12.348090277777777,0)" xlink:href="#au"/><use transform="matrix(0.010850694444444444,0,0,0.010850694444444444,22.97092013888889,0)" xlink:href="#as"/><use transform="matrix(0.010850694444444444,0,0,0.010850694444444444,34.74392361111111,0)" xlink:href="#aq"/><use transform="matrix(0.010850694444444444,0,0,0.010850694444444444,47.00520833333333,0)" xlink:href="#ax"/><use transform="matrix(0.010850694444444444,0,0,0.010850694444444444,54.264322916666664,0)" xlink:href="#aB"/><use transform="matrix(0.010850694444444444,0,0,0.010850694444444444,66.35199652777777,0)" xlink:href="#at"/><use transform="matrix(0.010850694444444444,0,0,0.010850694444444444,73.66536458333333,0)" xlink:href="#aw"/></g><path d="M1175-1298H707V0H516v-1298H49v-158h1126v158" id="bp"/><g id="v"><use transform="matrix(0.010850694444444444,0,0,0.010850694444444444,0,0)" xlink:href="#bp"/><use transform="matrix(0.010850694444444444,0,0,0.010850694444444444,12.445746527777777,0)" xlink:href="#at"/><use transform="matrix(0.010850694444444444,0,0,0.010850694444444444,19.96527777777778,0)" xlink:href="#av"/><use transform="matrix(0.010850694444444444,0,0,0.010850694444444444,25.358072916666664,0)" xlink:href="#aJ"/><use transform="matrix(0.010850694444444444,0,0,0.010850694444444444,37.825520833333336,0)" xlink:href="#aJ"/><use transform="matrix(0.010850694444444444,0,0,0.010850694444444444,50.29296875,0)" xlink:href="#as"/><use transform="matrix(0.010850694444444444,0,0,0.010850694444444444,62.06597222222222,0)" xlink:href="#at"/></g><g id="w"><use transform="matrix(0.010850694444444444,0,0,0.010850694444444444,0,0)" xlink:href="#am"/><use transform="matrix(0.010850694444444444,0,0,0.010850694444444444,12.67361111111111,0)" xlink:href="#aq"/></g><path d="M704-1390c-164-38-297 28-288 194v114h231v143H416V0H231v-939H60v-143h171v-111c-12-274 208-416 483-347" id="bq"/><path d="M258 11c-71 0-114-43-114-108 0-67 42-112 114-112s116 45 116 112c-1 65-45 108-116 108" id="br"/><path d="M19 279c92 0 127-48 127-150v-1211h185V125c0 208-94 312-283 312-41 0-78-6-113-18V271c21 5 49 8 84 8zm216-1543c-68 0-107-42-108-105 0-61 42-107 108-107 68 0 110 44 110 107s-42 105-110 105" id="bs"/><g id="x"><use transform="matrix(0.010850694444444444,0,0,0.010850694444444444,0,0)" xlink:href="#aI"/><use transform="matrix(0.010850694444444444,0,0,0.010850694444444444,19.47699652777778,0)" xlink:href="#aB"/><use transform="matrix(0.010850694444444444,0,0,0.010850694444444444,31.56467013888889,0)" xlink:href="#aq"/><use transform="matrix(0.010850694444444444,0,0,0.010850694444444444,43.825954861111114,0)" xlink:href="#av"/><use transform="matrix(0.010850694444444444,0,0,0.010850694444444444,49.21875,0)" xlink:href="#bq"/><use transform="matrix(0.010850694444444444,0,0,0.010850694444444444,56.67317708333333,0)" xlink:href="#as"/><use transform="matrix(0.010850694444444444,0,0,0.010850694444444444,68.44618055555556,0)" xlink:href="#az"/><use transform="matrix(0.010850694444444444,0,0,0.010850694444444444,79.90451388888889,0)" xlink:href="#ax"/><use transform="matrix(0.010850694444444444,0,0,0.010850694444444444,87.16362847222221,0)" xlink:href="#br"/><use transform="matrix(0.010850694444444444,0,0,0.010850694444444444,93.01215277777777,0)" xlink:href="#bs"/><use transform="matrix(0.010850694444444444,0,0,0.010850694444444444,98.31814236111111,0)" xlink:href="#az"/><use transform="matrix(0.010850694444444444,0,0,0.010850694444444444,109.77647569444441,0)" xlink:href="#am"/><use transform="matrix(0.010850694444444444,0,0,0.010850694444444444,122.45008680555556,0)" xlink:href="#aq"/><path fill="#8080ff" d="M-1.1 1.1H135.8v1.08H-1.1z"/></g><path d="M314-151h633V0H88v-136l597-793H97v-153h820v131" id="bt"/><g id="y"><use transform="matrix(0.010850694444444444,0,0,0.010850694444444444,0,0)" xlink:href="#bq"/><use transform="matrix(0.010850694444444444,0,0,0.010850694444444444,7.71484375,0)" xlink:href="#av"/><use transform="matrix(0.010850694444444444,0,0,0.010850694444444444,13.10763888888889,0)" xlink:href="#aq"/><use transform="matrix(0.010850694444444444,0,0,0.010850694444444444,25.36892361111111,0)" xlink:href="#aB"/><use transform="matrix(0.010850694444444444,0,0,0.010850694444444444,37.45659722222222,0)" xlink:href="#al"/><use transform="matrix(0.010850694444444444,0,0,0.010850694444444444,42.84939236111111,0)" xlink:href="#av"/><use transform="matrix(0.010850694444444444,0,0,0.010850694444444444,48.242187499999986,0)" xlink:href="#bt"/><use transform="matrix(0.010850694444444444,0,0,0.010850694444444444,59.082031249999986,0)" xlink:href="#as"/></g><path d="M677 24c-213 0-288-135-325-197h-20V0H158v-1490h180v551h14c37-59 106-193 324-193 279 0 474 222 474 576 0 356-194 580-473 580zm-27-161c209 0 317-186 317-421 0-232-105-413-317-413-206 0-314 166-314 413 0 249 111 421 314 421" id="bu"/><g id="z"><use transform="matrix(0.010850694444444444,0,0,0.010850694444444444,0,0)" xlink:href="#aZ"/><use transform="matrix(0.010850694444444444,0,0,0.010850694444444444,13.324652777777777,0)" xlink:href="#bu"/><use transform="matrix(0.010850694444444444,0,0,0.010850694444444444,26.931423611111104,0)" xlink:href="#bm"/><use transform="matrix(0.010850694444444444,0,0,0.010850694444444444,32.31336805555555,0)" xlink:href="#aN"/><use transform="matrix(0.010850694444444444,0,0,0.010850694444444444,45.26909722222221,0)" xlink:href="#aY"/><use transform="matrix(0.010850694444444444,0,0,0.010850694444444444,57.96440972222221,0)" xlink:href="#aM"/></g><path d="M126 0v-134l627-806v-11H146v-167h839v143L376-178v11h629V0H126" id="bv"/><g id="A"><use transform="matrix(0.010850694444444444,0,0,0.010850694444444444,0,0)" xlink:href="#bk"/><use transform="matrix(0.010850694444444444,0,0,0.010850694444444444,8.22482638888889,0)" xlink:href="#aV"/><use transform="matrix(0.010850694444444444,0,0,0.010850694444444444,13.606770833333332,0)" xlink:href="#aW"/><use transform="matrix(0.010850694444444444,0,0,0.010850694444444444,26.73611111111111,0)" xlink:href="#aQ"/><use transform="matrix(0.010850694444444444,0,0,0.010850694444444444,39.21440972222222,0)" xlink:href="#aR"/><use transform="matrix(0.010850694444444444,0,0,0.010850694444444444,44.596354166666664,0)" xlink:href="#aV"/><use transform="matrix(0.010850694444444444,0,0,0.010850694444444444,49.97829861111111,0)" xlink:href="#bv"/><use transform="matrix(0.010850694444444444,0,0,0.010850694444444444,61.924913194444436,0)" xlink:href="#aN"/></g><g id="B"><use transform="matrix(0.010850694444444444,0,0,0.010850694444444444,0,0)" xlink:href="#bg"/><use transform="matrix(0.010850694444444444,0,0,0.010850694444444444,8.10546875,0)" xlink:href="#aP"/><use transform="matrix(0.010850694444444444,0,0,0.010850694444444444,27.571614583333332,0)" xlink:href="#aQ"/><use transform="matrix(0.010850694444444444,0,0,0.010850694444444444,40.04991319444444,0)" xlink:href="#aW"/><use transform="matrix(0.010850694444444444,0,0,0.010850694444444444,53.17925347222222,0)" xlink:href="#aV"/><use transform="matrix(0.010850694444444444,0,0,0.010850694444444444,58.561197916666664,0)" xlink:href="#bk"/><use transform="matrix(0.010850694444444444,0,0,0.010850694444444444,66.13498263888889,0)" xlink:href="#aN"/><use transform="matrix(0.010850694444444444,0,0,0.010850694444444444,79.09071180555556,0)" xlink:href="#aU"/><use transform="matrix(0.010850694444444444,0,0,0.010850694444444444,90.8203125,0)" xlink:href="#aM"/><use transform="matrix(0.010850694444444444,0,0,0.010850694444444444,98.09027777777777,0)" xlink:href="#bl"/><use transform="matrix(0.010850694444444444,0,0,0.010850694444444444,104.4921875,0)" xlink:href="#bm"/><use transform="matrix(0.010850694444444444,0,0,0.010850694444444444,109.87413194444444,0)" xlink:href="#aU"/><use transform="matrix(0.010850694444444444,0,0,0.010850694444444444,121.60373263888889,0)" xlink:href="#aZ"/><use transform="matrix(0.010850694444444444,0,0,0.010850694444444444,134.92838541666666,0)" xlink:href="#aW"/><use transform="matrix(0.010850694444444444,0,0,0.010850694444444444,148.05772569444443,0)" xlink:href="#bn"/></g><g id="C"><use transform="matrix(0.010850694444444444,0,0,0.010850694444444444,0,0)" xlink:href="#ba"/><use transform="matrix(0.010850694444444444,0,0,0.010850694444444444,16.514756944444443,0)" xlink:href="#bb"/><use transform="matrix(0.010850694444444444,0,0,0.010850694444444444,30.859375,0)" xlink:href="#bb"/><use transform="matrix(0.010850694444444444,0,0,0.010850694444444444,45.20399305555556,0)" xlink:href="#bc"/></g><path d="M784 20c-382 0-662-292-662-764 0-473 280-766 662-766s660 293 660 766c0 472-278 764-660 764zm0-176c266 0 475-207 475-588 0-383-209-590-475-590-268 0-477 208-477 590 0 380 209 588 477 588" id="bw"/><g id="D"><use transform="matrix(0.010850694444444444,0,0,0.010850694444444444,0,0)" xlink:href="#bc"/><use transform="matrix(0.010850694444444444,0,0,0.010850694444444444,14.192708333333332,0)" xlink:href="#bw"/><use transform="matrix(0.010850694444444444,0,0,0.010850694444444444,31.184895833333332,0)" xlink:href="#bd"/><use transform="matrix(0.010850694444444444,0,0,0.010850694444444444,45.44270833333333,0)" xlink:href="#bb"/></g><path fill="#333" d="M651-255l416-1201h210L737 0H567L28-1456h209" id="bx"/><path fill="#333" d="M1216-1011c-1 297-202 441-512 441H361V0H169v-1456h537c297-6 510 164 510 445zm-192 2c1-178-126-288-307-289H361v571h345c196 1 318-92 318-282" id="by"/><path fill="#333" d="M688-137c238 0 323-102 359-325h193c-32 297-228 482-552 482-361 0-569-299-569-680 0-197 8-360 73-497 88-186 257-317 513-319 316-2 509 195 535 488h-193c-31-212-118-330-342-330-272 0-397 224-393 523v141c-3 282 115 517 376 517" id="bz"/><g id="E"><use transform="matrix(0.008173828125000001,0,0,0.008173828125000001,0,0)" xlink:href="#bx"/><use transform="matrix(0.008173828125000001,0,0,0.008173828125000001,10.650498046875,0)" xlink:href="#by"/><use transform="matrix(0.008173828125000001,0,0,0.008173828125000001,21.211083984375,0)" xlink:href="#bz"/><use transform="matrix(0.008173828125000001,0,0,0.008173828125000001,32.106796875,0)" xlink:href="#aa"/></g><path fill="#5f6368" d="M497-251l268-831h189L566 0H425L33-1082h189" id="bA"/><path fill="#5f6368" d="M632-1102c291 0 422 251 422 573 0 297-141 548-419 549-131 0-235-42-310-125v521H140v-1498h169l9 120c75-93 180-140 314-140zm-53 971c207 0 290-180 290-419 0-218-92-395-292-395-112 0-196 50-252 149v517c55 99 140 148 254 148" id="bB"/><path fill="#5f6368" d="M277-555c0 244 77 420 297 424 127 2 249-93 255-210h175C980-127 805 20 574 20 258 20 81-222 92-562c11-319 164-533 481-540 237-5 426 165 431 392H829c-7-133-115-242-256-240-209 4-296 166-296 395" id="bC"/><path fill="#5f6368" d="M525-543H37v-151h488v151" id="bD"/><path fill="#5f6368" d="M538-131c121 0 232-49 232-156 0-50-20-88-56-117-73-60-334-92-420-143-92-55-162-110-162-238 0-190 192-317 400-317 223 0 414 129 413 338H759c0-108-110-186-227-186-119 0-215 53-215 159 0 45 18 78 53 101 76 52 331 90 416 139 98 57 169 115 169 251C955-92 760 20 538 20c-176 0-314-68-386-174-38-55-57-115-57-179h185c6 129 116 202 258 202" id="bE"/><path fill="#5f6368" d="M456 20C285 20 205-92 206-268v-671H9v-143h197v-262h185v262h202v143H391v671c-9 125 92 149 207 118V0c-49 13-96 20-142 20" id="bF"/><path fill="#5f6368" d="M520 20C244 20 95-247 95-550c0-298 151-550 427-552 127 0 227 43 301 130v-564h185V0H838l-9-116C755-25 652 20 520 20zm48-965c-210 0-288 177-288 416 0 218 87 392 286 392 117 0 203-53 257-158v-497c-55-102-140-153-255-153" id="bG"/><path fill="#5f6368" d="M599-131c141 0 220-65 285-146l113 88C906-50 770 20 589 20 281 21 93-214 93-545c0-223 93-397 233-485 74-48 154-72 240-72 300 2 449 218 445 537v77H278c0 197 129 357 321 357zm227-509c-3-180-88-310-260-310-170 0-264 140-282 310h542" id="bH"/><path fill="#5f6368" d="M1016-874C1016-303 841 2 305 1v-156c342 4 512-148 525-485-69 82-173 153-315 153-275 0-415-209-415-485 0-296 155-504 451-504 312 0 465 266 465 602zM282-982c0 180 93 342 263 342 134 0 246-99 286-198v-74c5-208-96-410-279-410-174 0-270 155-270 340" id="bI"/><path fill="#5f6368" d="M132-554c0-555 187-908 715-903v157c-320-8-501 179-526 477 77-88 181-132 314-132 259 0 417 214 417 480 0 286-172 495-451 495-293 0-469-266-469-574zm737 88c0-181-95-335-265-335-133 0-252 96-286 200v68c-6 207 101 397 283 400 175 3 268-150 268-333" id="bJ"/><path fill="#5f6368" d="M561-1102c238-4 403 126 403 351v498c0 99 13 178 38 237V0H808c-11-21-19-59-26-114C696-25 593 20 474 20c-199 0-368-130-365-320 4-251 214-359 490-356h180v-85c-1-135-86-212-229-212-115 0-232 67-233 171H131c20-205 206-316 430-320zM294-326c0 117 90 185 207 185 122 0 239-75 278-162v-222H634c-227 0-340 66-340 199" id="bK"/><path fill="#5f6368" d="M575-1476c247 0 432 154 429 400-2 161-97 271-213 327 135 56 245 179 247 356 3 257-200 413-463 413-265 0-466-156-463-413 2-176 108-302 243-357-115-56-207-166-209-326-4-246 181-400 429-400zm0 1345c168 0 278-101 278-266 0-161-118-276-280-276-163 0-276 113-276 276 0 167 108 266 278 266zm244-942c0-143-104-251-244-251-146 0-244 102-244 251 0 145 98 248 244 248s244-103 244-248" id="bL"/><path fill="#5f6368" d="M704-1390c-164-38-297 28-288 194v114h231v143H416V0H231v-939H60v-143h171v-111c-12-274 208-416 483-347" id="bM"/><g id="F"><use transform="matrix(0.0078125,0,0,0.0078125,0,0)" xlink:href="#bA"/><use transform="matrix(0.0078125,0,0,0.0078125,7.75,0)" xlink:href="#bB"/><use transform="matrix(0.0078125,0,0,0.0078125,16.7265625,0)" xlink:href="#bC"/><use transform="matrix(0.0078125,0,0,0.0078125,25.1015625,0)" xlink:href="#bD"/><use transform="matrix(0.0078125,0,0,0.0078125,29.515625,0)" xlink:href="#bE"/><use transform="matrix(0.0078125,0,0,0.0078125,37.765625,0)" xlink:href="#bF"/><use transform="matrix(0.0078125,0,0,0.0078125,42.9921875,0)" xlink:href="#bG"/><use transform="matrix(0.0078125,0,0,0.0078125,52.015625,0)" xlink:href="#bD"/><use transform="matrix(0.0078125,0,0,0.0078125,56.4296875,0)" xlink:href="#bG"/><use transform="matrix(0.0078125,0,0,0.0078125,65.453125,0)" xlink:href="#bH"/><use transform="matrix(0.0078125,0,0,0.0078125,73.828125,0)" xlink:href="#bA"/><use transform="matrix(0.0078125,0,0,0.0078125,81.578125,0)" xlink:href="#bD"/><use transform="matrix(0.0078125,0,0,0.0078125,85.9921875,0)" xlink:href="#bI"/><use transform="matrix(0.0078125,0,0,0.0078125,94.9765625,0)" xlink:href="#bJ"/><use transform="matrix(0.0078125,0,0,0.0078125,103.9609375,0)" xlink:href="#bI"/><use transform="matrix(0.0078125,0,0,0.0078125,112.9453125,0)" xlink:href="#bH"/><use transform="matrix(0.0078125,0,0,0.0078125,121.421875,0)" xlink:href="#bK"/><use transform="matrix(0.0078125,0,0,0.0078125,130.125,0)" xlink:href="#bL"/><use transform="matrix(0.0078125,0,0,0.0078125,139.109375,0)" xlink:href="#bM"/><use transform="matrix(0.0078125,0,0,0.0078125,144.6640625,0)" xlink:href="#bJ"/></g><linearGradient gradientUnits="userSpaceOnUse" id="G" x1="1478.76" y1="462.42" x2="1546.35" y2="462.42"><stop offset="0%" stop-color="#c74634"/><stop offset="50%" stop-color="#db897d"/><stop offset="100%" stop-color="#c74634"/></linearGradient><linearGradient gradientUnits="userSpaceOnUse" id="H" x1="1478.08" y1="444.4" x2="1478.08" y2="400.04"><stop offset="0%" stop-color="#32bedd"/><stop offset="100%" stop-color="#50e6ff"/></linearGradient><path d="M180 0v-1490h270l367 940c28 72 75 218 110 339 35-117 81-264 110-339l362-940h271V0h-187c2-448-5-837 7-1287-157 497-311 829-483 1287H842C666-458 514-784 354-1284c12 438 5 843 7 1284H180" id="bN"/><path d="M140 405l46-156c120 36 205 19 263-150l32-93L54-1118h197c107 313 237 620 324 950 87-331 219-637 326-950h196L606 167c-68 178-176 259-334 259-64 0-113-12-132-21" id="bO"/><path d="M784 20c-382 0-662-292-662-764 0-473 280-766 662-766s660 293 660 766c0 282-99 499-260 629l192 255h-198L1049-33C969 2 880 20 784 20zm-62-486h198l156 205c112-98 183-261 183-483 0-383-209-590-475-590-268 0-477 208-477 590 0 380 209 588 477 588 54 0 106-9 154-25" id="bP"/><path d="M180 0v-1490h190v1322h690V0H180" id="bQ"/><g id="I"><use transform="matrix(0.0087890625,0,0,0.0087890625,0,0)" xlink:href="#bN"/><use transform="matrix(0.0087890625,0,0,0.0087890625,16.34765625,0)" xlink:href="#bO"/><use transform="matrix(0.0087890625,0,0,0.0087890625,26.4638671875,0)" xlink:href="#bd"/><use transform="matrix(0.0087890625,0,0,0.0087890625,38.0126953125,0)" xlink:href="#bP"/><use transform="matrix(0.0087890625,0,0,0.0087890625,51.7763671875,0)" xlink:href="#bQ"/></g><g id="J"><use transform="matrix(0.010850694444444444,0,0,0.010850694444444444,0,0)" xlink:href="#bi"/><use transform="matrix(0.010850694444444444,0,0,0.010850694444444444,15.33203125,0)" xlink:href="#bc"/><use transform="matrix(0.010850694444444444,0,0,0.010850694444444444,29.524739583333332,0)" xlink:href="#bh"/></g><g id="K"><use transform="matrix(0.010850694444444444,0,0,0.010850694444444444,0,0)" xlink:href="#bh"/><use transform="matrix(0.010850694444444444,0,0,0.010850694444444444,16.23263888888889,0)" xlink:href="#aZ"/><use transform="matrix(0.010850694444444444,0,0,0.010850694444444444,29.557291666666664,0)" xlink:href="#aW"/><use transform="matrix(0.010850694444444444,0,0,0.010850694444444444,42.68663194444444,0)" xlink:href="#aW"/><use transform="matrix(0.010850694444444444,0,0,0.010850694444444444,55.81597222222222,0)" xlink:href="#aN"/><use transform="matrix(0.010850694444444444,0,0,0.010850694444444444,68.77170138888889,0)" xlink:href="#aY"/><use transform="matrix(0.010850694444444444,0,0,0.010850694444444444,81.46701388888889,0)" xlink:href="#aM"/><use transform="matrix(0.010850694444444444,0,0,0.010850694444444444,88.51996527777777,0)" xlink:href="#aZ"/><use transform="matrix(0.010850694444444444,0,0,0.010850694444444444,101.84461805555556,0)" xlink:href="#aO"/></g><path d="M481 0L54-1118h197c107 314 236 620 325 951 87-331 217-637 324-951h197L670 0H481" id="bR"/><path d="M798-719v166H144v-166h654" id="bS"/><path d="M1096 418H916v-591h-14C865-111 790 24 577 24c-279 0-473-224-473-580 0-354 195-576 474-576 218 0 287 134 324 193h20v-179h174V418zM604-137c203 0 314-172 314-421 0-247-108-413-314-413-212 0-317 181-317 413 0 235 108 421 317 421" id="bT"/><g id="L"><use transform="matrix(0.010850694444444444,0,0,0.010850694444444444,0,0)" xlink:href="#aU"/><use transform="matrix(0.010850694444444444,0,0,0.010850694444444444,11.729600694444445,0)" xlink:href="#bR"/><use transform="matrix(0.010850694444444444,0,0,0.010850694444444444,24.21875,0)" xlink:href="#be"/><use transform="matrix(0.010850694444444444,0,0,0.010850694444444444,37.82552083333333,0)" xlink:href="#aY"/><use transform="matrix(0.010850694444444444,0,0,0.010850694444444444,50.52083333333333,0)" xlink:href="#bS"/><use transform="matrix(0.010850694444444444,0,0,0.010850694444444444,60.742187499999986,0)" xlink:href="#aP"/><use transform="matrix(0.010850694444444444,0,0,0.010850694444444444,79.88281249999999,0)" xlink:href="#bO"/><use transform="matrix(0.010850694444444444,0,0,0.010850694444444444,92.37196180555556,0)" xlink:href="#aU"/><use transform="matrix(0.010850694444444444,0,0,0.010850694444444444,104.10156249999997,0)" xlink:href="#bT"/><use transform="matrix(0.010850694444444444,0,0,0.010850694444444444,117.70833333333331,0)" xlink:href="#aR"/></g><path d="M409 0L70-1118h191c89 329 165 560 243 925 75-353 154-601 240-925h192c85 325 161 564 235 922 77-354 157-598 244-922h191L1267 0h-179c-86-307-176-590-250-913C763-588 675-308 588 0H409" id="bU"/><g id="M"><use transform="matrix(0.010850694444444444,0,0,0.010850694444444444,0,0)" xlink:href="#bf"/><use transform="matrix(0.010850694444444444,0,0,0.010850694444444444,13.606770833333332,0)" xlink:href="#aZ"/><use transform="matrix(0.010850694444444444,0,0,0.010850694444444444,26.529947916666664,0)" xlink:href="#bU"/><use transform="matrix(0.010850694444444444,0,0,0.010850694444444444,44.71571180555556,0)" xlink:href="#aW"/><use transform="matrix(0.010850694444444444,0,0,0.010850694444444444,57.84505208333333,0)" xlink:href="#aR"/><use transform="matrix(0.010850694444444444,0,0,0.010850694444444444,63.22699652777778,0)" xlink:href="#aZ"/><use transform="matrix(0.010850694444444444,0,0,0.010850694444444444,76.76866319444444,0)" xlink:href="#aQ"/><use transform="matrix(0.010850694444444444,0,0,0.010850694444444444,89.24696180555556,0)" xlink:href="#bf"/></g><g id="N"><use transform="matrix(0.010850694444444444,0,0,0.010850694444444444,0,0)" xlink:href="#bh"/><use transform="matrix(0.010850694444444444,0,0,0.010850694444444444,16.23263888888889,0)" xlink:href="#bd"/><use transform="matrix(0.010850694444444444,0,0,0.010850694444444444,30.49045138888889,0)" xlink:href="#bi"/><use transform="matrix(0.010850694444444444,0,0,0.010850694444444444,44.81336805555556,0)" xlink:href="#aU"/></g><g id="O"><use transform="matrix(0.010850694444444444,0,0,0.010850694444444444,0,0)" xlink:href="#bR"/><use transform="matrix(0.010850694444444444,0,0,0.010850694444444444,12.055121527777777,0)" xlink:href="#aN"/><use transform="matrix(0.010850694444444444,0,0,0.010850694444444444,25.010850694444443,0)" xlink:href="#aO"/><use transform="matrix(0.010850694444444444,0,0,0.010850694444444444,33.72395833333333,0)" xlink:href="#aV"/><use transform="matrix(0.010850694444444444,0,0,0.010850694444444444,39.10590277777777,0)" xlink:href="#bk"/><use transform="matrix(0.010850694444444444,0,0,0.010850694444444444,47.33072916666666,0)" xlink:href="#bO"/></g><path d="M180 0v-1490h510c348 0 508 194 508 460 0 198-88 351-276 417L1256 0h-220L726-579c-117 2-238 0-356 1V0H180zm190-747h312c235 0 327-108 327-283 0-177-92-293-329-293H370v576" id="bV"/><g id="P"><use transform="matrix(0.010850694444444444,0,0,0.010850694444444444,0,0)" xlink:href="#bV"/><use transform="matrix(0.010850694444444444,0,0,0.010850694444444444,14.301215277777777,0)" xlink:href="#aT"/><use transform="matrix(0.010850694444444444,0,0,0.010850694444444444,27.44140625,0)" xlink:href="#aW"/></g><path d="M545 20c-263 0-445-160-445-446v-80h190v80c0 182 102 279 255 279 152 0 254-97 254-279v-1064h190v1064c0 286-181 446-444 446" id="bW"/><g id="Q"><use transform="matrix(0.010850694444444444,0,0,0.010850694444444444,0,0)" xlink:href="#bW"/><use transform="matrix(0.010850694444444444,0,0,0.010850694444444444,12.684461805555555,0)" xlink:href="#aZ"/><use transform="matrix(0.010850694444444444,0,0,0.010850694444444444,26.009114583333332,0)" xlink:href="#bu"/></g><path d="M692-1560L212 224H46l480-1784h166" id="bX"/><path d="M611 442c-248 0-391-105-460-228l146-94c47 65 117 165 314 165 178 0 307-82 307-266v-224h-17C863-141 792-18 576-18c-268 0-472-195-472-546 0-346 197-568 476-568 216 0 288 133 326 193h17v-179h175V29c0 289-215 413-487 413zm-5-620c203 0 314-146 314-390 0-237-108-403-314-403-213 0-319 180-319 403 0 230 109 390 319 390" id="bY"/><g id="R"><use transform="matrix(0.010850694444444444,0,0,0.010850694444444444,0,0)" xlink:href="#bU"/><use transform="matrix(0.010850694444444444,0,0,0.010850694444444444,18.18576388888889,0)" xlink:href="#bX"/><use transform="matrix(0.010850694444444444,0,0,0.010850694444444444,26.19357638888889,0)" xlink:href="#aQ"/><use transform="matrix(0.010850694444444444,0,0,0.010850694444444444,38.671875,0)" xlink:href="#aO"/><use transform="matrix(0.010850694444444444,0,0,0.010850694444444444,46.66883680555556,0)" xlink:href="#bY"/><use transform="matrix(0.010850694444444444,0,0,0.010850694444444444,60.29730902777778,0)" xlink:href="#aU"/></g><g id="S"><use transform="matrix(0.010850694444444444,0,0,0.010850694444444444,0,0)" xlink:href="#ak"/><use transform="matrix(0.010850694444444444,0,0,0.010850694444444444,14.463975694444445,0)" xlink:href="#al"/><use transform="matrix(0.010850694444444444,0,0,0.010850694444444444,19.856770833333332,0)" xlink:href="#am"/><use transform="matrix(0.010850694444444444,0,0,0.010850694444444444,32.53038194444444,0)" xlink:href="#an"/><use transform="matrix(0.010850694444444444,0,0,0.010850694444444444,44.78081597222222,0)" xlink:href="#ao"/></g><path d="M362-157h690V0H169v-1456h193v1299" id="bZ"/><g id="T"><use transform="matrix(0.010850694444444444,0,0,0.010850694444444444,0,0)" xlink:href="#bZ"/><use transform="matrix(0.010850694444444444,0,0,0.010850694444444444,11.957465277777777,0)" xlink:href="#am"/><use transform="matrix(0.010850694444444444,0,0,0.010850694444444444,24.63107638888889,0)" xlink:href="#aJ"/><use transform="matrix(0.010850694444444444,0,0,0.010850694444444444,37.09852430555555,0)" xlink:href="#aJ"/><use transform="matrix(0.010850694444444444,0,0,0.010850694444444444,49.56597222222221,0)" xlink:href="#av"/><use transform="matrix(0.010850694444444444,0,0,0.010850694444444444,54.9587673611111,0)" xlink:href="#aq"/><use transform="matrix(0.010850694444444444,0,0,0.010850694444444444,67.22005208333331,0)" xlink:href="#aJ"/></g></defs></g></svg>